<svg width="2215" height="1435" viewBox="0 0 2215 1435" fill="none" xmlns="http://www.w3.org/2000/svg">
<path d="M9.36269 117.552L5.63436 121.133C5.42282 121.337 5.19588 121.485 4.95353 121.579C4.71117 121.674 4.46524 121.711 4.21573 121.692C3.97084 121.678 3.72699 121.611 3.48417 121.493C3.24617 121.371 3.02325 121.201 2.81541 120.985C2.44593 120.6 2.23966 120.188 2.19661 119.749C2.15837 119.305 2.28258 118.871 2.56926 118.448L3.24608 118.907C3.16821 119.028 3.10208 119.152 3.04768 119.278C3.00271 119.404 2.9789 119.534 2.97626 119.666C2.98304 119.798 3.01569 119.933 3.07422 120.071C3.13275 120.209 3.22898 120.347 3.36292 120.487C3.62618 120.761 3.90631 120.898 4.20333 120.9C4.50978 120.901 4.82887 120.742 5.16059 120.424L8.25431 117.452L6.5085 115.634L7.03494 115.129L9.36269 117.552ZM8.58699 126.82C8.36992 126.594 8.27289 126.377 8.2959 126.17C8.31892 125.963 8.40541 125.764 8.5554 125.574L8.52076 125.538C8.2259 125.664 7.92822 125.696 7.62771 125.633C7.33664 125.571 7.04561 125.388 6.75464 125.085C6.38054 124.696 6.1836 124.289 6.16383 123.864C6.14406 123.439 6.30966 123.058 6.66062 122.721C7.00677 122.389 7.39367 122.257 7.82134 122.327C8.25362 122.402 8.73994 122.721 9.28031 123.283L10.0424 124.076L10.4102 123.723C10.6842 123.46 10.8146 123.187 10.8014 122.903C10.7931 122.616 10.6526 122.33 10.3801 122.046C10.14 121.796 9.89321 121.64 9.63984 121.579C9.39127 121.512 9.13667 121.512 8.87603 121.578L8.79039 120.911C8.93273 120.867 9.08883 120.842 9.25869 120.836C9.42855 120.83 9.60486 120.854 9.78763 120.91C9.97521 120.961 10.1621 121.045 10.3484 121.162C10.5394 121.274 10.725 121.424 10.9052 121.611C11.3255 122.049 11.5474 122.501 11.571 122.968C11.5993 123.44 11.4163 123.866 11.0221 124.245L8.97402 126.212L9.47283 126.731L8.96802 127.216L8.58699 126.82ZM7.3348 124.722C7.47798 124.871 7.62412 124.99 7.77324 125.078C7.93178 125.166 8.08378 125.228 8.22922 125.264C8.37947 125.295 8.51856 125.295 8.64647 125.265C8.78381 125.235 8.90056 125.173 8.99671 125.081L9.60969 124.492L8.84763 123.699C8.51509 123.353 8.22454 123.146 7.97598 123.08C7.72741 123.014 7.51178 123.068 7.32909 123.244L7.17765 123.389C6.98535 123.574 6.90337 123.782 6.93173 124.014C6.96952 124.246 7.10387 124.482 7.3348 124.722ZM11.0367 129.37L13.4762 124.461L14.0374 125.045L12.9923 127.075L11.8663 129.266L11.894 129.295L14.1285 128.258L16.1988 127.295L16.7461 127.865L11.7434 130.105L11.0367 129.37ZM16.895 135.468C16.6779 135.242 16.5809 135.025 16.6039 134.818C16.6269 134.611 16.7134 134.413 16.8634 134.222L16.8287 134.186C16.5339 134.312 16.2362 134.344 15.9357 134.281C15.6446 134.219 15.3536 134.036 15.0626 133.734C14.6885 133.344 14.4916 132.937 14.4718 132.512C14.452 132.088 14.6176 131.707 14.9686 131.369C15.3147 131.037 15.7017 130.906 16.1293 130.975C16.5616 131.05 17.0479 131.369 17.5883 131.931L18.3504 132.724L18.7181 132.371C18.9922 132.108 19.1226 131.835 19.1094 131.552C19.1011 131.264 18.9606 130.978 18.6881 130.694C18.448 130.444 18.2012 130.289 17.9478 130.227C17.6993 130.161 17.4447 130.16 17.184 130.226L17.0984 129.559C17.2407 129.515 17.3968 129.49 17.5667 129.484C17.7365 129.478 17.9128 129.502 18.0956 129.558C18.2832 129.609 18.4701 129.693 18.6564 129.81C18.8474 129.922 19.033 130.072 19.2131 130.259C19.6334 130.697 19.8554 131.149 19.879 131.616C19.9073 132.089 19.7243 132.514 19.3301 132.893L17.282 134.86L17.7808 135.379L17.276 135.864L16.895 135.468ZM15.6428 133.37C15.786 133.519 15.9321 133.638 16.0812 133.726C16.2398 133.814 16.3918 133.876 16.5372 133.912C16.6875 133.943 16.8265 133.943 16.9545 133.913C17.0918 133.883 17.2085 133.821 17.3047 133.729L17.9177 133.14L17.1556 132.347C16.8231 132.001 16.5325 131.795 16.284 131.728C16.0354 131.662 15.8198 131.717 15.6371 131.892L15.4856 132.038C15.2933 132.222 15.2114 132.43 15.2397 132.662C15.2775 132.894 15.4119 133.13 15.6428 133.37ZM19.5976 138.454C19.1635 138.002 18.8896 137.554 18.776 137.108C18.6671 136.658 18.6524 136.215 18.7319 135.778L19.5151 135.871C19.4593 136.304 19.4752 136.686 19.5628 137.018C19.6551 137.354 19.8467 137.674 20.1377 137.977C20.4887 138.342 20.8407 138.54 21.1937 138.571C21.5467 138.602 21.8746 138.472 22.1775 138.181C22.4227 137.945 22.5456 137.693 22.5463 137.424C22.5518 137.151 22.4171 136.813 22.1423 136.412L21.6957 135.759C21.5034 135.473 21.3697 135.203 21.2946 134.952C21.2241 134.705 21.2004 134.474 21.2236 134.258C21.2516 134.036 21.317 133.835 21.4196 133.653C21.5271 133.467 21.6602 133.297 21.8188 133.145C22.2804 132.702 22.7744 132.518 23.3009 132.595C23.8275 132.671 24.3378 132.967 24.832 133.481C25.22 133.885 25.4783 134.289 25.6069 134.692C25.7402 135.1 25.7651 135.506 25.6815 135.91L24.905 135.838C24.9537 135.523 24.9411 135.211 24.8672 134.903C24.7932 134.596 24.6061 134.285 24.3059 133.973C23.978 133.631 23.6541 133.439 23.3344 133.395C23.0147 133.35 22.7106 133.467 22.4221 133.744C22.1962 133.961 22.0757 134.206 22.0608 134.479C22.0553 134.753 22.1922 135.097 22.4715 135.513L22.8973 136.144C23.0896 136.431 23.2233 136.7 23.2984 136.951C23.3735 137.203 23.3995 137.437 23.3763 137.653C23.3577 137.874 23.2947 138.078 23.1872 138.265C23.0797 138.451 22.9443 138.623 22.7808 138.78C22.3145 139.228 21.8013 139.425 21.2413 139.371C20.6859 139.322 20.138 139.017 19.5976 138.454ZM23.8902 142.923C23.6316 142.653 23.4463 142.369 23.3344 142.07C23.232 141.771 23.1956 141.468 23.2253 141.162C23.255 140.856 23.3531 140.55 23.5196 140.242C23.6907 139.939 23.9229 139.646 24.2162 139.365C24.5094 139.083 24.8132 138.865 25.1275 138.711C25.4418 138.557 25.7523 138.471 26.0591 138.454C26.3708 138.432 26.6716 138.48 26.9615 138.599C27.2515 138.718 27.5234 138.91 27.7775 139.174C28.1238 139.535 28.3263 139.904 28.3847 140.283C28.4431 140.661 28.3957 141.026 28.2425 141.376L27.5539 141.15C27.6816 140.898 27.7221 140.642 27.6754 140.382C27.6334 140.126 27.5016 139.883 27.2799 139.652C27.1182 139.484 26.9439 139.36 26.7569 139.281C26.5793 139.202 26.3961 139.165 26.2074 139.171C26.0187 139.177 25.8316 139.222 25.6459 139.308C25.465 139.399 25.2927 139.523 25.1293 139.68L24.4947 140.29C24.3312 140.447 24.2005 140.614 24.1027 140.791C24.0095 140.973 23.9562 141.158 23.943 141.346C23.9298 141.535 23.959 141.724 24.0307 141.914C24.1071 142.099 24.2284 142.279 24.3947 142.452C24.6349 142.702 24.8912 142.853 25.1636 142.906C25.436 142.958 25.7193 142.936 26.0136 142.838L26.1273 143.519C25.7711 143.649 25.3981 143.674 25.0083 143.596C24.6231 143.522 24.2504 143.298 23.8902 142.923ZM26.9515 144.954L27.9976 146.043L30.738 143.411L29.6919 142.322L30.1822 141.851L31.7826 143.517L30.8451 144.417L30.8797 144.453C31.2469 144.248 31.6138 144.173 31.9805 144.228C32.3566 144.282 32.704 144.476 33.0226 144.807L33.5214 145.327L32.9445 145.881L32.2725 145.181C31.9538 144.85 31.5991 144.673 31.2082 144.651C30.8219 144.634 30.4725 144.775 30.16 145.075L28.5518 146.62L29.9374 148.063L29.447 148.534L26.4611 145.425L26.9515 144.954ZM36.9249 147.224C36.7633 147.056 36.6838 146.906 36.6864 146.774C36.6939 146.637 36.7505 146.518 36.8563 146.416L36.9716 146.305C37.0774 146.204 37.1963 146.154 37.3282 146.157C37.465 146.155 37.6142 146.238 37.7759 146.406C37.9375 146.575 38.0146 146.727 38.0072 146.864C38.0045 146.996 37.9503 147.112 37.8445 147.214L37.7292 147.325C37.6234 147.427 37.5021 147.478 37.3653 147.48C37.2334 147.478 37.0866 147.392 36.9249 147.224ZM31.3064 149.488L32.595 150.829L35.3353 148.196L34.0467 146.855L34.5371 146.384L36.3799 148.302L33.1492 151.406L34.3546 152.661L33.8643 153.132L30.816 149.959L31.3064 149.488ZM38.6149 150.629L39.1691 151.206L38.5634 151.788L38.5911 151.816C39.2836 151.613 39.8815 151.774 40.3849 152.298C40.8237 152.755 40.9948 153.274 40.8982 153.857C40.8063 154.445 40.4526 155.034 39.8372 155.625C39.2219 156.216 38.6188 156.546 38.0281 156.614C37.4419 156.687 36.9295 156.496 36.4907 156.039C35.9873 155.515 35.8509 154.911 36.0815 154.227L36.0538 154.198L34.0057 156.166L33.4515 155.589L38.6149 150.629ZM36.788 155.324C37.1113 155.66 37.4616 155.823 37.8391 155.811C38.2259 155.8 38.5876 155.633 38.9241 155.31L39.5588 154.7C39.8953 154.377 40.0745 154.024 40.0963 153.643C40.1275 153.262 39.9814 152.903 39.6581 152.566C39.5334 152.436 39.3988 152.33 39.2543 152.247C39.1098 152.164 38.9624 152.111 38.8119 152.09C38.6663 152.063 38.52 152.07 38.373 152.109C38.2355 152.149 38.1042 152.229 37.9792 152.349L36.6379 153.637C36.5129 153.757 36.4254 153.888 36.3755 154.028C36.3349 154.169 36.3226 154.315 36.3384 154.466C36.359 154.612 36.4079 154.76 36.4851 154.907C36.5623 155.055 36.6633 155.194 36.788 155.324ZM40.6412 160.186C40.3687 159.902 40.2471 159.617 40.2764 159.33C40.3104 159.048 40.4524 158.787 40.7024 158.547L43.0822 156.26L41.8906 155.02L42.3809 154.549L43.2677 155.472C43.3878 155.597 43.495 155.66 43.5892 155.662C43.6929 155.664 43.8073 155.605 43.9323 155.485L44.9058 154.55L45.4392 155.105L44.1268 156.366L45.7548 158.061L45.2644 158.532L43.6364 156.837L40.896 159.47L42.5241 161.165L42.0337 161.636L40.6412 160.186ZM48.7111 168.716C48.5217 168.519 48.4286 168.341 48.4319 168.18C48.4397 168.025 48.5061 167.887 48.6311 167.767L48.7609 167.642C48.8859 167.522 49.0262 167.461 49.1818 167.46C49.3421 167.463 49.5169 167.563 49.7063 167.76C49.8956 167.957 49.9864 168.134 49.9785 168.289C49.9753 168.449 49.9112 168.589 49.7862 168.71L49.6564 168.834C49.5314 168.954 49.3888 169.013 49.2286 169.01C49.0729 169.011 48.9004 168.913 48.7111 168.716ZM57.1568 177.551C56.5656 176.936 56.3481 176.262 56.5042 175.529C56.665 174.802 57.166 174.034 58.0074 173.226C58.8487 172.417 59.6361 171.948 60.3696 171.816C61.1076 171.689 61.7723 171.934 62.3634 172.549C62.5851 172.78 62.7455 173.009 62.8447 173.238C62.9438 173.466 62.9983 173.691 63.008 173.913C63.0177 174.135 62.9945 174.351 62.9384 174.562C62.8871 174.769 62.8241 174.968 62.7496 175.16L62.0128 174.869C62.0818 174.719 62.1367 174.57 62.1774 174.42C62.2229 174.265 62.2425 174.112 62.2361 173.961C62.2391 173.81 62.2092 173.659 62.1462 173.507C62.0879 173.359 61.9848 173.209 61.837 173.055C61.4537 172.656 61.0159 172.503 60.5236 172.597C60.036 172.696 59.5398 172.988 59.035 173.473L58.2129 174.262C57.7081 174.747 57.3966 175.231 57.2785 175.715C57.1649 176.203 57.2999 176.646 57.6832 177.045C57.831 177.199 57.9773 177.308 58.1222 177.372C58.2717 177.441 58.4195 177.48 58.5655 177.487C58.7209 177.495 58.8744 177.482 59.026 177.447C59.1824 177.408 59.3366 177.357 59.4888 177.294L59.7496 178.042C59.5501 178.113 59.3462 178.17 59.1379 178.213C58.9296 178.256 58.7148 178.268 58.4936 178.25C58.2724 178.231 58.0497 178.168 57.8255 178.06C57.6014 177.951 57.3785 177.782 57.1568 177.551ZM61.1376 181.695C60.7034 181.243 60.4295 180.794 60.3159 180.349C60.207 179.899 60.1923 179.455 60.2718 179.018L61.055 179.112C60.9992 179.544 61.0151 179.927 61.1027 180.258C61.195 180.595 61.3866 180.915 61.6776 181.218C62.0286 181.583 62.3806 181.781 62.7336 181.812C63.0866 181.842 63.4146 181.712 63.7174 181.421C63.9626 181.186 64.0856 180.934 64.0862 180.665C64.0917 180.391 63.957 180.054 63.6822 179.652L63.2356 179C63.0433 178.713 62.9096 178.444 62.8345 178.193C62.764 177.946 62.7403 177.715 62.7635 177.498C62.7916 177.277 62.8569 177.076 62.9596 176.894C63.067 176.707 63.2001 176.538 63.3587 176.386C63.8203 175.942 64.3143 175.759 64.8409 175.835C65.3674 175.912 65.8778 176.207 66.3719 176.722C66.7599 177.126 67.0182 177.529 67.1468 177.933C67.2801 178.341 67.305 178.747 67.2214 179.151L66.4449 179.078C66.4937 178.763 66.481 178.452 66.4071 178.144C66.3331 177.836 66.146 177.526 65.8458 177.213C65.5179 176.872 65.194 176.679 64.8743 176.635C64.5546 176.591 64.2505 176.708 63.962 176.985C63.7361 177.202 63.6156 177.447 63.6007 177.72C63.5952 177.993 63.7321 178.338 64.0114 178.754L64.4372 179.385C64.6295 179.671 64.7632 179.941 64.8383 180.192C64.9134 180.443 64.9394 180.677 64.9162 180.894C64.8976 181.115 64.8346 181.319 64.7271 181.505C64.6196 181.692 64.4842 181.863 64.3207 182.02C63.8544 182.468 63.3412 182.666 62.7812 182.612C62.2258 182.563 61.6779 182.257 61.1376 181.695ZM65.2915 186.019C64.8574 185.567 64.5835 185.118 64.4699 184.673C64.361 184.223 64.3463 183.779 64.4258 183.342L65.209 183.436C65.1532 183.868 65.1691 184.251 65.2567 184.582C65.349 184.919 65.5406 185.239 65.8316 185.542C66.1826 185.907 66.5346 186.105 66.8876 186.136C67.2406 186.166 67.5685 186.036 67.8714 185.745C68.1166 185.51 68.2395 185.258 68.2402 184.989C68.2457 184.716 68.111 184.378 67.8362 183.976L67.3896 183.324C67.1973 183.037 67.0636 182.768 66.9885 182.517C66.918 182.27 66.8943 182.039 66.9175 181.822C66.9455 181.601 67.0109 181.4 67.1135 181.218C67.221 181.031 67.3541 180.862 67.5127 180.71C67.9743 180.266 68.4683 180.083 68.9948 180.159C69.5214 180.236 70.0318 180.531 70.5259 181.046C70.9139 181.45 71.1722 181.853 71.3008 182.257C71.4341 182.665 71.459 183.071 71.3754 183.475L70.5989 183.402C70.6476 183.088 70.635 182.776 70.5611 182.468C70.4871 182.16 70.3 181.85 69.9998 181.537C69.6719 181.196 69.348 181.003 69.0283 180.959C68.7086 180.915 68.4045 181.032 68.116 181.309C67.8901 181.526 67.7696 181.771 67.7547 182.044C67.7492 182.317 67.8861 182.662 68.1654 183.078L68.5912 183.709C68.7835 183.995 68.9172 184.265 68.9923 184.516C69.0674 184.767 69.0934 185.001 69.0702 185.218C69.0516 185.439 68.9886 185.643 68.8811 185.829C68.7736 186.016 68.6382 186.187 68.4747 186.344C68.0084 186.792 67.4952 186.99 66.9352 186.936C66.3798 186.887 65.8319 186.581 65.2915 186.019ZM73.635 194.661C73.4457 194.464 73.3526 194.285 73.3558 194.125C73.3636 193.969 73.4301 193.831 73.555 193.711L73.6849 193.587C73.8099 193.467 73.9502 193.406 74.1058 193.404C74.266 193.407 74.4408 193.508 74.6302 193.705C74.8196 193.902 74.9103 194.078 74.9025 194.233C74.8993 194.394 74.8352 194.534 74.7102 194.654L74.5804 194.779C74.4554 194.899 74.3127 194.957 74.1525 194.954C73.9969 194.956 73.8244 194.858 73.635 194.661ZM85.2361 202.031L83.3518 200.07L81.0657 202.266L80.4838 201.66L85.5174 196.824L86.0993 197.43L83.8782 199.564L85.7626 201.525L87.9837 199.392L88.5656 199.997L83.532 204.833L82.9501 204.227L85.2361 202.031ZM90.96 203.543L86.4529 207.873L85.8709 207.268L90.3781 202.938L88.7639 201.257L89.2904 200.752L93.1007 204.718L92.5742 205.224L90.96 203.543ZM93.9137 210.588L95.5075 209.057L95.452 208.999L91.8447 210.426L93.4152 206.879L93.3598 206.821L91.7661 208.352L89.2421 210.777L88.7086 210.221L93.7422 205.386L94.4904 206.165L93.1214 209.185L93.163 209.229L96.2363 207.982L96.9568 208.732L91.9232 213.568L91.3897 213.012L93.9137 210.588ZM93.2229 214.921L98.2565 210.085L98.8384 210.691L94.3313 215.021L96.6244 217.408L96.0979 217.913L93.2229 214.921Z" fill="black"/>
<g clip-path="url(#clip0_0_1)">
<path d="M1307.85 31.6666C1573.03 31.6666 1790.99 218.543 1811.18 455.044L1717.78 370.125L1693.16 392.514L1817.97 506H1842.59L1979 381.955L1954.38 359.566L1846.34 457.817C1827.57 202.52 1593.31 0 1307.85 0C1010.16 0 768 220.207 768 490.863H802.83C802.83 237.671 1029.39 31.6666 1307.85 31.6666Z" fill="white"/>
<path d="M1317 994.098C1051.87 994.098 833.963 817.558 813.786 594.138L907.157 674.36L931.775 653.209L806.993 546H782.375L646 663.171L670.618 684.322L778.631 591.521C797.399 832.697 1031.61 1024.02 1317 1024.02C1614.62 1024.02 1856.73 816.003 1856.73 560.302H1821.9C1821.9 799.488 1595.39 994.098 1317 994.098Z" fill="white"/>
</g>
<path d="M687.572 1205.5V1172.35H686.372L664.322 1226.2L642.272 1172.35H641.072V1205.5V1258H629.522V1153.3H645.722L664.172 1199.5H665.072L683.522 1153.3H699.122V1258H687.572V1205.5ZM789.064 1163.5C785.564 1163.5 783.114 1162.8 781.714 1161.4C780.314 1159.9 779.614 1158.05 779.614 1155.85V1153.45C779.614 1151.25 780.314 1149.45 781.714 1148.05C783.114 1146.55 785.564 1145.8 789.064 1145.8C792.564 1145.8 795.014 1146.55 796.414 1148.05C797.814 1149.45 798.514 1151.25 798.514 1153.45V1155.85C798.514 1158.05 797.814 1159.9 796.414 1161.4C795.014 1162.8 792.564 1163.5 789.064 1163.5ZM755.164 1247.8H783.064V1190.8H755.164V1180.6H795.064V1247.8H821.164V1258H755.164V1247.8ZM943.355 1266.85C943.355 1274.65 940.105 1280.4 933.605 1284.1C927.105 1287.9 917.355 1289.8 904.355 1289.8C891.855 1289.8 882.855 1288.15 877.355 1284.85C871.955 1281.55 869.255 1276.8 869.255 1270.6C869.255 1266.4 870.355 1263.15 872.555 1260.85C874.755 1258.55 877.855 1256.85 881.855 1255.75V1253.95C879.655 1252.85 877.955 1251.45 876.755 1249.75C875.555 1248.05 874.955 1245.9 874.955 1243.3C874.955 1239.3 876.255 1236.3 878.855 1234.3C881.555 1232.3 884.905 1230.8 888.905 1229.8V1229.2C884.105 1227.1 880.355 1224 877.655 1219.9C875.055 1215.8 873.755 1211 873.755 1205.5C873.755 1201.6 874.455 1198 875.855 1194.7C877.255 1191.4 879.255 1188.6 881.855 1186.3C884.555 1183.9 887.755 1182.05 891.455 1180.75C895.155 1179.45 899.255 1178.8 903.755 1178.8C909.555 1178.8 914.655 1179.85 919.055 1181.95V1180.6C919.055 1177.6 919.755 1175.1 921.155 1173.1C922.555 1171.1 924.955 1170.1 928.355 1170.1H942.605V1180.6H925.205V1185.85C928.005 1188.25 930.155 1191.1 931.655 1194.4C933.155 1197.7 933.905 1201.4 933.905 1205.5C933.905 1209.4 933.155 1213 931.655 1216.3C930.255 1219.6 928.255 1222.45 925.655 1224.85C923.055 1227.15 919.855 1228.95 916.055 1230.25C912.355 1231.55 908.255 1232.2 903.755 1232.2C902.455 1232.2 901.205 1232.15 900.005 1232.05C898.805 1231.95 897.605 1231.8 896.405 1231.6C895.205 1231.8 893.955 1232.15 892.655 1232.65C891.355 1233.05 890.155 1233.65 889.055 1234.45C887.955 1235.15 887.055 1236 886.355 1237C885.655 1238 885.305 1239.15 885.305 1240.45C885.305 1242.75 886.455 1244.3 888.755 1245.1C891.055 1245.8 894.055 1246.15 897.755 1246.15H914.855C924.855 1246.15 932.105 1248.05 936.605 1251.85C941.105 1255.55 943.355 1260.55 943.355 1266.85ZM932.105 1267.45C932.105 1264.35 930.855 1261.85 928.355 1259.95C925.855 1258.15 921.505 1257.25 915.305 1257.25H888.455C883.255 1259.35 880.655 1262.85 880.655 1267.75C880.655 1271.15 882.005 1274.05 884.705 1276.45C887.405 1278.95 891.905 1280.2 898.205 1280.2H909.905C916.905 1280.2 922.355 1279.1 926.255 1276.9C930.155 1274.8 932.105 1271.65 932.105 1267.45ZM903.755 1222.9C909.755 1222.9 914.155 1221.5 916.955 1218.7C919.855 1215.9 921.305 1212.2 921.305 1207.6V1203.25C921.305 1198.65 919.855 1195 916.955 1192.3C914.155 1189.5 909.755 1188.1 903.755 1188.1C897.755 1188.1 893.355 1189.5 890.555 1192.3C887.755 1195 886.355 1198.65 886.355 1203.25V1207.6C886.355 1212.2 887.755 1215.9 890.555 1218.7C893.355 1221.5 897.755 1222.9 903.755 1222.9ZM1042.45 1245.4H1041.85C1041.05 1247.3 1040.05 1249.15 1038.85 1250.95C1037.65 1252.65 1036.15 1254.15 1034.35 1255.45C1032.65 1256.75 1030.6 1257.8 1028.2 1258.6C1025.8 1259.4 1023 1259.8 1019.8 1259.8C1011.7 1259.8 1005.2 1257.25 1000.3 1252.15C995.396 1246.95 992.946 1239.65 992.946 1230.25V1180.6H1004.95V1228.15C1004.95 1235.25 1006.5 1240.55 1009.6 1244.05C1012.7 1247.45 1017.25 1249.15 1023.25 1249.15C1025.65 1249.15 1028 1248.85 1030.3 1248.25C1032.6 1247.65 1034.65 1246.75 1036.45 1245.55C1038.25 1244.35 1039.7 1242.85 1040.8 1241.05C1041.9 1239.15 1042.45 1236.9 1042.45 1234.3V1180.6H1054.45V1258H1042.45V1245.4ZM1145.44 1259.8C1139.84 1259.8 1134.79 1258.85 1130.29 1256.95C1125.89 1255.05 1122.09 1252.35 1118.89 1248.85C1115.79 1245.25 1113.39 1241 1111.69 1236.1C1109.99 1231.1 1109.14 1225.55 1109.14 1219.45C1109.14 1213.25 1109.99 1207.65 1111.69 1202.65C1113.49 1197.65 1115.94 1193.4 1119.04 1189.9C1122.14 1186.3 1125.84 1183.55 1130.14 1181.65C1134.54 1179.75 1139.39 1178.8 1144.69 1178.8C1149.89 1178.8 1154.59 1179.75 1158.79 1181.65C1163.09 1183.55 1166.74 1186.2 1169.74 1189.6C1172.74 1192.9 1175.04 1196.85 1176.64 1201.45C1178.24 1206.05 1179.04 1211.1 1179.04 1216.6V1222.3H1121.74V1225.9C1121.74 1229.3 1122.29 1232.45 1123.39 1235.35C1124.49 1238.25 1126.04 1240.75 1128.04 1242.85C1130.14 1244.95 1132.64 1246.6 1135.54 1247.8C1138.54 1248.9 1141.84 1249.45 1145.44 1249.45C1150.64 1249.45 1155.14 1248.25 1158.94 1245.85C1162.74 1243.45 1165.64 1240.15 1167.64 1235.95L1176.49 1241.95C1174.19 1247.15 1170.34 1251.45 1164.94 1254.85C1159.64 1258.15 1153.14 1259.8 1145.44 1259.8ZM1144.69 1188.7C1141.39 1188.7 1138.34 1189.3 1135.54 1190.5C1132.74 1191.7 1130.29 1193.35 1128.19 1195.45C1126.19 1197.55 1124.59 1200.05 1123.39 1202.95C1122.29 1205.75 1121.74 1208.85 1121.74 1212.25V1213.3H1166.14V1211.65C1166.14 1208.25 1165.59 1205.15 1164.49 1202.35C1163.49 1199.55 1162.04 1197.15 1160.14 1195.15C1158.34 1193.05 1156.09 1191.45 1153.39 1190.35C1150.79 1189.25 1147.89 1188.7 1144.69 1188.7ZM1231.03 1247.8H1258.03V1157.2H1231.03V1147H1270.03V1247.8H1297.03V1258H1231.03V1247.8ZM1474.21 1277.8H1511.71V1190.8H1472.86V1180.6H1523.71V1270.3C1523.71 1275.5 1522.31 1279.75 1519.51 1283.05C1516.81 1286.35 1512.51 1288 1506.61 1288H1474.21V1277.8ZM1517.71 1163.5C1514.21 1163.5 1511.76 1162.8 1510.36 1161.4C1508.96 1159.9 1508.26 1158.05 1508.26 1155.85V1153.45C1508.26 1151.25 1508.96 1149.45 1510.36 1148.05C1511.76 1146.55 1514.21 1145.8 1517.71 1145.8C1521.21 1145.8 1523.66 1146.55 1525.06 1148.05C1526.46 1149.45 1527.16 1151.25 1527.16 1153.45V1155.85C1527.16 1158.05 1526.46 1159.9 1525.06 1161.4C1523.66 1162.8 1521.21 1163.5 1517.71 1163.5ZM1642.15 1245.4H1641.55C1640.75 1247.3 1639.75 1249.15 1638.55 1250.95C1637.35 1252.65 1635.85 1254.15 1634.05 1255.45C1632.35 1256.75 1630.3 1257.8 1627.9 1258.6C1625.5 1259.4 1622.7 1259.8 1619.5 1259.8C1611.4 1259.8 1604.9 1257.25 1600 1252.15C1595.1 1246.95 1592.65 1239.65 1592.65 1230.25V1180.6H1604.65V1228.15C1604.65 1235.25 1606.2 1240.55 1609.3 1244.05C1612.4 1247.45 1616.95 1249.15 1622.95 1249.15C1625.35 1249.15 1627.7 1248.85 1630 1248.25C1632.3 1247.65 1634.35 1246.75 1636.15 1245.55C1637.95 1244.35 1639.4 1242.85 1640.5 1241.05C1641.6 1239.15 1642.15 1236.9 1642.15 1234.3V1180.6H1654.15V1258H1642.15V1245.4ZM1773.04 1258C1768.34 1258 1764.99 1256.8 1762.99 1254.4C1760.99 1252 1759.74 1249 1759.24 1245.4H1758.49C1756.79 1249.9 1754.04 1253.45 1750.24 1256.05C1746.54 1258.55 1741.54 1259.8 1735.24 1259.8C1727.14 1259.8 1720.69 1257.7 1715.89 1253.5C1711.09 1249.3 1708.69 1243.55 1708.69 1236.25C1708.69 1229.05 1711.29 1223.5 1716.49 1219.6C1721.79 1215.7 1730.29 1213.75 1741.99 1213.75H1758.49V1206.1C1758.49 1200.4 1756.89 1196.15 1753.69 1193.35C1750.49 1190.45 1745.94 1189 1740.04 1189C1734.84 1189 1730.59 1190.05 1727.29 1192.15C1723.99 1194.15 1721.34 1196.9 1719.34 1200.4L1711.24 1194.4C1712.24 1192.4 1713.59 1190.45 1715.29 1188.55C1716.99 1186.65 1719.09 1185 1721.59 1183.6C1724.09 1182.1 1726.94 1180.95 1730.14 1180.15C1733.34 1179.25 1736.89 1178.8 1740.79 1178.8C1749.89 1178.8 1757.09 1181.1 1762.39 1185.7C1767.79 1190.3 1770.49 1196.7 1770.49 1204.9V1247.5H1781.29V1258H1773.04ZM1737.34 1249.75C1740.44 1249.75 1743.24 1249.4 1745.74 1248.7C1748.34 1247.9 1750.59 1246.9 1752.49 1245.7C1754.39 1244.4 1755.84 1242.9 1756.84 1241.2C1757.94 1239.4 1758.49 1237.5 1758.49 1235.5V1222.75H1741.99C1734.79 1222.75 1729.54 1223.75 1726.24 1225.75C1722.94 1227.75 1721.29 1230.65 1721.29 1234.45V1237.6C1721.29 1241.6 1722.69 1244.65 1725.49 1246.75C1728.39 1248.75 1732.34 1249.75 1737.34 1249.75ZM1833.44 1258V1180.6H1845.44V1193.2H1846.04C1846.84 1191.3 1847.84 1189.5 1849.04 1187.8C1850.24 1186 1851.69 1184.45 1853.39 1183.15C1855.19 1181.85 1857.29 1180.8 1859.69 1180C1862.09 1179.2 1864.89 1178.8 1868.09 1178.8C1876.19 1178.8 1882.69 1181.4 1887.59 1186.6C1892.49 1191.7 1894.94 1198.95 1894.94 1208.35V1258H1882.94V1210.45C1882.94 1203.35 1881.39 1198.1 1878.29 1194.7C1875.19 1191.2 1870.64 1189.45 1864.64 1189.45C1862.24 1189.45 1859.89 1189.75 1857.59 1190.35C1855.29 1190.95 1853.24 1191.85 1851.44 1193.05C1849.64 1194.25 1848.19 1195.8 1847.09 1197.7C1845.99 1199.6 1845.44 1201.8 1845.44 1204.3V1258H1833.44Z" fill="white"/>
<path d="M387.173 1419V1413.64H401.093V1368.52H387.173V1363.16H421.733V1368.52H407.813V1413.64H421.733V1419H387.173ZM478.422 1412.28H478.102C475.435 1417.4 471.195 1419.96 465.382 1419.96C460.315 1419.96 456.342 1418.07 453.462 1414.28C450.635 1410.49 449.222 1405.19 449.222 1398.36C449.222 1391.53 450.635 1386.23 453.462 1382.44C456.342 1378.65 460.315 1376.76 465.382 1376.76C471.195 1376.76 475.435 1379.32 478.102 1384.44H478.422V1359.8H484.822V1419H478.422V1412.28ZM467.862 1414.28C469.302 1414.28 470.662 1414.09 471.942 1413.72C473.222 1413.35 474.342 1412.81 475.302 1412.12C476.262 1411.37 477.009 1410.49 477.542 1409.48C478.129 1408.41 478.422 1407.19 478.422 1405.8V1390.92C478.422 1389.53 478.129 1388.33 477.542 1387.32C477.009 1386.25 476.262 1385.37 475.302 1384.68C474.342 1383.93 473.222 1383.37 471.942 1383C470.662 1382.63 469.302 1382.44 467.862 1382.44C464.129 1382.44 461.222 1383.59 459.142 1385.88C457.115 1388.12 456.102 1391.11 456.102 1394.84V1401.88C456.102 1405.61 457.115 1408.63 459.142 1410.92C461.222 1413.16 464.129 1414.28 467.862 1414.28ZM533.111 1419.96C530.124 1419.96 527.431 1419.45 525.031 1418.44C522.684 1417.43 520.657 1415.99 518.951 1414.12C517.297 1412.2 516.017 1409.93 515.111 1407.32C514.204 1404.65 513.751 1401.69 513.751 1398.44C513.751 1395.13 514.204 1392.15 515.111 1389.48C516.071 1386.81 517.377 1384.55 519.031 1382.68C520.684 1380.76 522.657 1379.29 524.951 1378.28C527.297 1377.27 529.884 1376.76 532.711 1376.76C535.484 1376.76 537.991 1377.27 540.231 1378.28C542.524 1379.29 544.471 1380.71 546.071 1382.52C547.671 1384.28 548.897 1386.39 549.751 1388.84C550.604 1391.29 551.031 1393.99 551.031 1396.92V1399.96H520.471V1401.88C520.471 1403.69 520.764 1405.37 521.351 1406.92C521.937 1408.47 522.764 1409.8 523.831 1410.92C524.951 1412.04 526.284 1412.92 527.831 1413.56C529.431 1414.15 531.191 1414.44 533.111 1414.44C535.884 1414.44 538.284 1413.8 540.311 1412.52C542.337 1411.24 543.884 1409.48 544.951 1407.24L549.671 1410.44C548.444 1413.21 546.391 1415.51 543.511 1417.32C540.684 1419.08 537.217 1419.96 533.111 1419.96ZM532.711 1382.04C530.951 1382.04 529.324 1382.36 527.831 1383C526.337 1383.64 525.031 1384.52 523.911 1385.64C522.844 1386.76 521.991 1388.09 521.351 1389.64C520.764 1391.13 520.471 1392.79 520.471 1394.6V1395.16H544.151V1394.28C544.151 1392.47 543.857 1390.81 543.271 1389.32C542.737 1387.83 541.964 1386.55 540.951 1385.48C539.991 1384.36 538.791 1383.51 537.351 1382.92C535.964 1382.33 534.417 1382.04 532.711 1382.04ZM598.919 1368.6C597.053 1368.6 595.746 1368.23 594.999 1367.48C594.253 1366.68 593.879 1365.69 593.879 1364.52V1363.24C593.879 1362.07 594.253 1361.11 594.999 1360.36C595.746 1359.56 597.053 1359.16 598.919 1359.16C600.786 1359.16 602.093 1359.56 602.839 1360.36C603.586 1361.11 603.959 1362.07 603.959 1363.24V1364.52C603.959 1365.69 603.586 1366.68 602.839 1367.48C602.093 1368.23 600.786 1368.6 598.919 1368.6ZM580.839 1413.56H595.719V1383.16H580.839V1377.72H602.119V1413.56H616.039V1419H580.839V1413.56ZM675.928 1419C673.421 1419 671.635 1418.36 670.568 1417.08C669.501 1415.8 668.835 1414.2 668.568 1412.28H668.168C667.261 1414.68 665.795 1416.57 663.768 1417.96C661.795 1419.29 659.128 1419.96 655.768 1419.96C651.448 1419.96 648.008 1418.84 645.448 1416.6C642.888 1414.36 641.608 1411.29 641.608 1407.4C641.608 1403.56 642.995 1400.6 645.768 1398.52C648.595 1396.44 653.128 1395.4 659.368 1395.4H668.168V1391.32C668.168 1388.28 667.315 1386.01 665.608 1384.52C663.901 1382.97 661.475 1382.2 658.328 1382.2C655.555 1382.2 653.288 1382.76 651.528 1383.88C649.768 1384.95 648.355 1386.41 647.288 1388.28L642.968 1385.08C643.501 1384.01 644.221 1382.97 645.128 1381.96C646.035 1380.95 647.155 1380.07 648.488 1379.32C649.821 1378.52 651.341 1377.91 653.048 1377.48C654.755 1377 656.648 1376.76 658.728 1376.76C663.581 1376.76 667.421 1377.99 670.248 1380.44C673.128 1382.89 674.568 1386.31 674.568 1390.68V1413.4H680.328V1419H675.928ZM656.888 1414.6C658.541 1414.6 660.035 1414.41 661.368 1414.04C662.755 1413.61 663.955 1413.08 664.968 1412.44C665.981 1411.75 666.755 1410.95 667.288 1410.04C667.875 1409.08 668.168 1408.07 668.168 1407V1400.2H659.368C655.528 1400.2 652.728 1400.73 650.968 1401.8C649.208 1402.87 648.328 1404.41 648.328 1406.44V1408.12C648.328 1410.25 649.075 1411.88 650.568 1413C652.115 1414.07 654.221 1414.6 656.888 1414.6ZM724.777 1419.96C720.457 1419.96 716.724 1419.24 713.577 1417.8C710.484 1416.31 707.844 1414.33 705.657 1411.88L709.977 1408.12C711.95 1410.2 714.11 1411.8 716.457 1412.92C718.804 1414.04 721.63 1414.6 724.937 1414.6C728.137 1414.6 730.75 1414.04 732.777 1412.92C734.857 1411.75 735.897 1409.93 735.897 1407.48C735.897 1406.41 735.684 1405.53 735.257 1404.84C734.884 1404.09 734.35 1403.51 733.657 1403.08C732.964 1402.65 732.19 1402.33 731.337 1402.12C730.484 1401.85 729.577 1401.64 728.617 1401.48L722.137 1400.52C720.697 1400.31 719.124 1400.01 717.417 1399.64C715.764 1399.27 714.244 1398.68 712.857 1397.88C711.47 1397.03 710.297 1395.91 709.337 1394.52C708.43 1393.13 707.977 1391.32 707.977 1389.08C707.977 1387 708.377 1385.21 709.177 1383.72C710.03 1382.17 711.204 1380.89 712.697 1379.88C714.19 1378.81 715.95 1378.04 717.977 1377.56C720.004 1377.03 722.217 1376.76 724.617 1376.76C728.35 1376.76 731.577 1377.35 734.297 1378.52C737.07 1379.69 739.444 1381.32 741.417 1383.4L737.257 1387.32C736.777 1386.73 736.164 1386.15 735.417 1385.56C734.724 1384.92 733.844 1384.36 732.777 1383.88C731.764 1383.35 730.564 1382.92 729.177 1382.6C727.79 1382.28 726.19 1382.12 724.377 1382.12C721.124 1382.12 718.617 1382.68 716.857 1383.8C715.15 1384.92 714.297 1386.55 714.297 1388.68C714.297 1389.75 714.484 1390.65 714.857 1391.4C715.284 1392.09 715.844 1392.65 716.537 1393.08C717.23 1393.51 718.004 1393.85 718.857 1394.12C719.764 1394.33 720.67 1394.52 721.577 1394.68L728.057 1395.64C729.55 1395.85 731.124 1396.15 732.777 1396.52C734.43 1396.89 735.95 1397.51 737.337 1398.36C738.724 1399.16 739.87 1400.25 740.777 1401.64C741.737 1403.03 742.217 1404.84 742.217 1407.08C742.217 1411.19 740.617 1414.36 737.417 1416.6C734.27 1418.84 730.057 1419.96 724.777 1419.96ZM862.234 1412.28H861.914C859.248 1417.4 855.008 1419.96 849.194 1419.96C844.128 1419.96 840.154 1418.07 837.274 1414.28C834.448 1410.49 833.034 1405.19 833.034 1398.36C833.034 1391.53 834.448 1386.23 837.274 1382.44C840.154 1378.65 844.128 1376.76 849.194 1376.76C855.008 1376.76 859.248 1379.32 861.914 1384.44H862.234V1377.72H868.634V1435H862.234V1412.28ZM851.674 1414.28C853.114 1414.28 854.474 1414.09 855.754 1413.72C857.034 1413.35 858.154 1412.81 859.114 1412.12C860.074 1411.37 860.821 1410.49 861.354 1409.48C861.941 1408.41 862.234 1407.19 862.234 1405.8V1390.92C862.234 1389.53 861.941 1388.33 861.354 1387.32C860.821 1386.25 860.074 1385.37 859.114 1384.68C858.154 1383.93 857.034 1383.37 855.754 1383C854.474 1382.63 853.114 1382.44 851.674 1382.44C847.941 1382.44 845.034 1383.59 842.954 1385.88C840.928 1388.12 839.914 1391.11 839.914 1394.84V1401.88C839.914 1405.61 840.928 1408.63 842.954 1410.92C845.034 1413.16 847.941 1414.28 851.674 1414.28ZM925.963 1412.28H925.643C925.216 1413.29 924.683 1414.28 924.043 1415.24C923.403 1416.15 922.603 1416.95 921.643 1417.64C920.736 1418.33 919.643 1418.89 918.363 1419.32C917.083 1419.75 915.59 1419.96 913.883 1419.96C909.563 1419.96 906.096 1418.6 903.483 1415.88C900.87 1413.11 899.563 1409.21 899.563 1404.2V1377.72H905.963V1403.08C905.963 1406.87 906.79 1409.69 908.443 1411.56C910.096 1413.37 912.523 1414.28 915.723 1414.28C917.003 1414.28 918.256 1414.12 919.483 1413.8C920.71 1413.48 921.803 1413 922.763 1412.36C923.723 1411.72 924.496 1410.92 925.083 1409.96C925.67 1408.95 925.963 1407.75 925.963 1406.36V1377.72H932.363V1419H925.963V1412.28ZM980.892 1419.96C977.905 1419.96 975.212 1419.45 972.812 1418.44C970.465 1417.43 968.439 1415.99 966.732 1414.12C965.079 1412.2 963.799 1409.93 962.892 1407.32C961.985 1404.65 961.532 1401.69 961.532 1398.44C961.532 1395.13 961.985 1392.15 962.892 1389.48C963.852 1386.81 965.159 1384.55 966.812 1382.68C968.465 1380.76 970.439 1379.29 972.732 1378.28C975.079 1377.27 977.665 1376.76 980.492 1376.76C983.265 1376.76 985.772 1377.27 988.012 1378.28C990.305 1379.29 992.252 1380.71 993.852 1382.52C995.452 1384.28 996.679 1386.39 997.532 1388.84C998.385 1391.29 998.812 1393.99 998.812 1396.92V1399.96H968.252V1401.88C968.252 1403.69 968.545 1405.37 969.132 1406.92C969.719 1408.47 970.545 1409.8 971.612 1410.92C972.732 1412.04 974.065 1412.92 975.612 1413.56C977.212 1414.15 978.972 1414.44 980.892 1414.44C983.665 1414.44 986.065 1413.8 988.092 1412.52C990.119 1411.24 991.665 1409.48 992.732 1407.24L997.452 1410.44C996.225 1413.21 994.172 1415.51 991.292 1417.32C988.465 1419.08 984.999 1419.96 980.892 1419.96ZM980.492 1382.04C978.732 1382.04 977.105 1382.36 975.612 1383C974.119 1383.64 972.812 1384.52 971.692 1385.64C970.625 1386.76 969.772 1388.09 969.132 1389.64C968.545 1391.13 968.252 1392.79 968.252 1394.6V1395.16H991.932V1394.28C991.932 1392.47 991.639 1390.81 991.052 1389.32C990.519 1387.83 989.745 1386.55 988.732 1385.48C987.772 1384.36 986.572 1383.51 985.132 1382.92C983.745 1382.33 982.199 1382.04 980.492 1382.04ZM1108.59 1419.96C1104.27 1419.96 1100.54 1419.24 1097.39 1417.8C1094.3 1416.31 1091.66 1414.33 1089.47 1411.88L1093.79 1408.12C1095.76 1410.2 1097.92 1411.8 1100.27 1412.92C1102.62 1414.04 1105.44 1414.6 1108.75 1414.6C1111.95 1414.6 1114.56 1414.04 1116.59 1412.92C1118.67 1411.75 1119.71 1409.93 1119.71 1407.48C1119.71 1406.41 1119.5 1405.53 1119.07 1404.84C1118.7 1404.09 1118.16 1403.51 1117.47 1403.08C1116.78 1402.65 1116 1402.33 1115.15 1402.12C1114.3 1401.85 1113.39 1401.64 1112.43 1401.48L1105.95 1400.52C1104.51 1400.31 1102.94 1400.01 1101.23 1399.64C1099.58 1399.27 1098.06 1398.68 1096.67 1397.88C1095.28 1397.03 1094.11 1395.91 1093.15 1394.52C1092.24 1393.13 1091.79 1391.32 1091.79 1389.08C1091.79 1387 1092.19 1385.21 1092.99 1383.72C1093.84 1382.17 1095.02 1380.89 1096.51 1379.88C1098 1378.81 1099.76 1378.04 1101.79 1377.56C1103.82 1377.03 1106.03 1376.76 1108.43 1376.76C1112.16 1376.76 1115.39 1377.35 1118.11 1378.52C1120.88 1379.69 1123.26 1381.32 1125.23 1383.4L1121.07 1387.32C1120.59 1386.73 1119.98 1386.15 1119.23 1385.56C1118.54 1384.92 1117.66 1384.36 1116.59 1383.88C1115.58 1383.35 1114.38 1382.92 1112.99 1382.6C1111.6 1382.28 1110 1382.12 1108.19 1382.12C1104.94 1382.12 1102.43 1382.68 1100.67 1383.8C1098.96 1384.92 1098.11 1386.55 1098.11 1388.68C1098.11 1389.75 1098.3 1390.65 1098.67 1391.4C1099.1 1392.09 1099.66 1392.65 1100.35 1393.08C1101.04 1393.51 1101.82 1393.85 1102.67 1394.12C1103.58 1394.33 1104.48 1394.52 1105.39 1394.68L1111.87 1395.64C1113.36 1395.85 1114.94 1396.15 1116.59 1396.52C1118.24 1396.89 1119.76 1397.51 1121.15 1398.36C1122.54 1399.16 1123.68 1400.25 1124.59 1401.64C1125.55 1403.03 1126.03 1404.84 1126.03 1407.08C1126.03 1411.19 1124.43 1414.36 1121.23 1416.6C1118.08 1418.84 1113.87 1419.96 1108.59 1419.96ZM1172.8 1419.96C1169.81 1419.96 1167.12 1419.45 1164.72 1418.44C1162.37 1417.43 1160.34 1415.99 1158.64 1414.12C1156.98 1412.2 1155.7 1409.93 1154.8 1407.32C1153.89 1404.65 1153.44 1401.69 1153.44 1398.44C1153.44 1395.13 1153.89 1392.15 1154.8 1389.48C1155.76 1386.81 1157.06 1384.55 1158.72 1382.68C1160.37 1380.76 1162.34 1379.29 1164.64 1378.28C1166.98 1377.27 1169.57 1376.76 1172.4 1376.76C1175.17 1376.76 1177.68 1377.27 1179.92 1378.28C1182.21 1379.29 1184.16 1380.71 1185.76 1382.52C1187.36 1384.28 1188.58 1386.39 1189.44 1388.84C1190.29 1391.29 1190.72 1393.99 1190.72 1396.92V1399.96H1160.16V1401.88C1160.16 1403.69 1160.45 1405.37 1161.04 1406.92C1161.62 1408.47 1162.45 1409.8 1163.52 1410.92C1164.64 1412.04 1165.97 1412.92 1167.52 1413.56C1169.12 1414.15 1170.88 1414.44 1172.8 1414.44C1175.57 1414.44 1177.97 1413.8 1180 1412.52C1182.02 1411.24 1183.57 1409.48 1184.64 1407.24L1189.36 1410.44C1188.13 1413.21 1186.08 1415.51 1183.2 1417.32C1180.37 1419.08 1176.9 1419.96 1172.8 1419.96ZM1172.4 1382.04C1170.64 1382.04 1169.01 1382.36 1167.52 1383C1166.02 1383.64 1164.72 1384.52 1163.6 1385.64C1162.53 1386.76 1161.68 1388.09 1161.04 1389.64C1160.45 1391.13 1160.16 1392.79 1160.16 1394.6V1395.16H1183.84V1394.28C1183.84 1392.47 1183.54 1390.81 1182.96 1389.32C1182.42 1387.83 1181.65 1386.55 1180.64 1385.48C1179.68 1384.36 1178.48 1383.51 1177.04 1382.92C1175.65 1382.33 1174.1 1382.04 1172.4 1382.04ZM1302.02 1419C1298.87 1419 1296.55 1418.12 1295.06 1416.36C1293.62 1414.6 1292.9 1412.33 1292.9 1409.56V1383.16H1279.14V1377.72H1289.38C1290.76 1377.72 1291.72 1377.45 1292.26 1376.92C1292.84 1376.33 1293.14 1375.35 1293.14 1373.96V1363.16H1299.3V1377.72H1318.1V1383.16H1299.3V1413.56H1318.1V1419H1302.02ZM1363.98 1419.96C1361.1 1419.96 1358.49 1419.45 1356.14 1418.44C1353.85 1417.43 1351.88 1415.99 1350.22 1414.12C1348.62 1412.2 1347.4 1409.93 1346.54 1407.32C1345.69 1404.65 1345.26 1401.67 1345.26 1398.36C1345.26 1395.11 1345.69 1392.15 1346.54 1389.48C1347.4 1386.81 1348.62 1384.55 1350.22 1382.68C1351.88 1380.76 1353.85 1379.29 1356.14 1378.28C1358.49 1377.27 1361.1 1376.76 1363.98 1376.76C1366.86 1376.76 1369.45 1377.27 1371.74 1378.28C1374.09 1379.29 1376.06 1380.76 1377.66 1382.68C1379.32 1384.55 1380.57 1386.81 1381.42 1389.48C1382.28 1392.15 1382.7 1395.11 1382.7 1398.36C1382.7 1401.67 1382.28 1404.65 1381.42 1407.32C1380.57 1409.93 1379.32 1412.2 1377.66 1414.12C1376.06 1415.99 1374.09 1417.43 1371.74 1418.44C1369.45 1419.45 1366.86 1419.96 1363.98 1419.96ZM1363.98 1414.44C1367.56 1414.44 1370.44 1413.37 1372.62 1411.24C1374.81 1409.11 1375.9 1405.8 1375.9 1401.32V1395.4C1375.9 1390.92 1374.81 1387.61 1372.62 1385.48C1370.44 1383.35 1367.56 1382.28 1363.98 1382.28C1360.41 1382.28 1357.53 1383.35 1355.34 1385.48C1353.16 1387.61 1352.06 1390.92 1352.06 1395.4V1401.32C1352.06 1405.8 1353.16 1409.11 1355.34 1411.24C1357.53 1413.37 1360.41 1414.44 1363.98 1414.44ZM1410.11 1413.56H1422.19V1383.16H1410.11V1377.72H1428.59V1388.12H1428.99C1429.85 1384.87 1431.45 1382.33 1433.79 1380.52C1436.19 1378.65 1439.23 1377.72 1442.91 1377.72H1448.67V1384.12H1440.91C1437.23 1384.12 1434.25 1385.19 1431.95 1387.32C1429.71 1389.45 1428.59 1392.25 1428.59 1395.72V1413.56H1444.59V1419H1410.11V1413.56ZM1475.76 1419V1377.72H1482.16V1384.44H1482.48C1482.91 1383.43 1483.44 1382.47 1484.08 1381.56C1484.72 1380.6 1485.5 1379.77 1486.4 1379.08C1487.36 1378.39 1488.48 1377.83 1489.76 1377.4C1491.04 1376.97 1492.54 1376.76 1494.24 1376.76C1498.56 1376.76 1502.03 1378.15 1504.64 1380.92C1507.26 1383.64 1508.56 1387.51 1508.56 1392.52V1419H1502.16V1393.64C1502.16 1389.85 1501.34 1387.05 1499.68 1385.24C1498.03 1383.37 1495.6 1382.44 1492.4 1382.44C1491.12 1382.44 1489.87 1382.6 1488.64 1382.92C1487.42 1383.24 1486.32 1383.72 1485.36 1384.36C1484.4 1385 1483.63 1385.83 1483.04 1386.84C1482.46 1387.85 1482.16 1389.03 1482.16 1390.36V1419H1475.76ZM1571.49 1419C1568.98 1419 1567.2 1418.36 1566.13 1417.08C1565.06 1415.8 1564.4 1414.2 1564.13 1412.28H1563.73C1562.82 1414.68 1561.36 1416.57 1559.33 1417.96C1557.36 1419.29 1554.69 1419.96 1551.33 1419.96C1547.01 1419.96 1543.57 1418.84 1541.01 1416.6C1538.45 1414.36 1537.17 1411.29 1537.17 1407.4C1537.17 1403.56 1538.56 1400.6 1541.33 1398.52C1544.16 1396.44 1548.69 1395.4 1554.93 1395.4H1563.73V1391.32C1563.73 1388.28 1562.88 1386.01 1561.17 1384.52C1559.46 1382.97 1557.04 1382.2 1553.89 1382.2C1551.12 1382.2 1548.85 1382.76 1547.09 1383.88C1545.33 1384.95 1543.92 1386.41 1542.85 1388.28L1538.53 1385.08C1539.06 1384.01 1539.78 1382.97 1540.69 1381.96C1541.6 1380.95 1542.72 1380.07 1544.05 1379.32C1545.38 1378.52 1546.9 1377.91 1548.61 1377.48C1550.32 1377 1552.21 1376.76 1554.29 1376.76C1559.14 1376.76 1562.98 1377.99 1565.81 1380.44C1568.69 1382.89 1570.13 1386.31 1570.13 1390.68V1413.4H1575.89V1419H1571.49ZM1552.45 1414.6C1554.1 1414.6 1555.6 1414.41 1556.93 1414.04C1558.32 1413.61 1559.52 1413.08 1560.53 1412.44C1561.54 1411.75 1562.32 1410.95 1562.85 1410.04C1563.44 1409.08 1563.73 1408.07 1563.73 1407V1400.2H1554.93C1551.09 1400.2 1548.29 1400.73 1546.53 1401.8C1544.77 1402.87 1543.89 1404.41 1543.89 1406.44V1408.12C1543.89 1410.25 1544.64 1411.88 1546.13 1413C1547.68 1414.07 1549.78 1414.6 1552.45 1414.6ZM1600.18 1419V1377.72H1606.1V1382.52H1606.42C1607.06 1380.92 1607.97 1379.56 1609.14 1378.44C1610.31 1377.32 1612.05 1376.76 1614.34 1376.76C1616.74 1376.76 1618.53 1377.37 1619.7 1378.6C1620.87 1379.77 1621.59 1381.32 1621.86 1383.24H1622.1C1622.85 1381.37 1623.91 1379.83 1625.3 1378.6C1626.69 1377.37 1628.61 1376.76 1631.06 1376.76C1634.42 1376.76 1636.66 1377.93 1637.78 1380.28C1638.95 1382.63 1639.54 1385.99 1639.54 1390.36V1419H1633.62V1391.4C1633.62 1387.88 1633.25 1385.45 1632.5 1384.12C1631.81 1382.73 1630.5 1382.04 1628.58 1382.04C1626.87 1382.04 1625.49 1382.6 1624.42 1383.72C1623.35 1384.79 1622.82 1386.44 1622.82 1388.68V1419H1616.9V1391.4C1616.9 1387.88 1616.53 1385.45 1615.78 1384.12C1615.09 1382.73 1613.81 1382.04 1611.94 1382.04C1610.23 1382.04 1608.82 1382.6 1607.7 1383.72C1606.63 1384.79 1606.1 1386.44 1606.1 1388.68V1419H1600.18ZM1748.28 1419.96C1743.96 1419.96 1740.22 1419.24 1737.08 1417.8C1733.98 1416.31 1731.34 1414.33 1729.16 1411.88L1733.48 1408.12C1735.45 1410.2 1737.61 1411.8 1739.96 1412.92C1742.3 1414.04 1745.13 1414.6 1748.44 1414.6C1751.64 1414.6 1754.25 1414.04 1756.28 1412.92C1758.36 1411.75 1759.4 1409.93 1759.4 1407.48C1759.4 1406.41 1759.18 1405.53 1758.76 1404.84C1758.38 1404.09 1757.85 1403.51 1757.16 1403.08C1756.46 1402.65 1755.69 1402.33 1754.84 1402.12C1753.98 1401.85 1753.08 1401.64 1752.12 1401.48L1745.64 1400.52C1744.2 1400.31 1742.62 1400.01 1740.92 1399.64C1739.26 1399.27 1737.74 1398.68 1736.36 1397.88C1734.97 1397.03 1733.8 1395.91 1732.84 1394.52C1731.93 1393.13 1731.48 1391.32 1731.48 1389.08C1731.48 1387 1731.88 1385.21 1732.68 1383.72C1733.53 1382.17 1734.7 1380.89 1736.2 1379.88C1737.69 1378.81 1739.45 1378.04 1741.48 1377.56C1743.5 1377.03 1745.72 1376.76 1748.12 1376.76C1751.85 1376.76 1755.08 1377.35 1757.8 1378.52C1760.57 1379.69 1762.94 1381.32 1764.92 1383.4L1760.76 1387.32C1760.28 1386.73 1759.66 1386.15 1758.92 1385.56C1758.22 1384.92 1757.34 1384.36 1756.28 1383.88C1755.26 1383.35 1754.06 1382.92 1752.68 1382.6C1751.29 1382.28 1749.69 1382.12 1747.88 1382.12C1744.62 1382.12 1742.12 1382.68 1740.36 1383.8C1738.65 1384.92 1737.8 1386.55 1737.8 1388.68C1737.8 1389.75 1737.98 1390.65 1738.36 1391.4C1738.78 1392.09 1739.34 1392.65 1740.04 1393.08C1740.73 1393.51 1741.5 1393.85 1742.36 1394.12C1743.26 1394.33 1744.17 1394.52 1745.08 1394.68L1751.56 1395.64C1753.05 1395.85 1754.62 1396.15 1756.28 1396.52C1757.93 1396.89 1759.45 1397.51 1760.84 1398.36C1762.22 1399.16 1763.37 1400.25 1764.28 1401.64C1765.24 1403.03 1765.72 1404.84 1765.72 1407.08C1765.72 1411.19 1764.12 1414.36 1760.92 1416.6C1757.77 1418.84 1753.56 1419.96 1748.28 1419.96ZM1811.77 1419.96C1808.89 1419.96 1806.27 1419.45 1803.93 1418.44C1801.63 1417.43 1799.66 1415.99 1798.01 1414.12C1796.41 1412.2 1795.18 1409.93 1794.33 1407.32C1793.47 1404.65 1793.05 1401.67 1793.05 1398.36C1793.05 1395.11 1793.47 1392.15 1794.33 1389.48C1795.18 1386.81 1796.41 1384.55 1798.01 1382.68C1799.66 1380.76 1801.63 1379.29 1803.93 1378.28C1806.27 1377.27 1808.89 1376.76 1811.77 1376.76C1814.65 1376.76 1817.23 1377.27 1819.53 1378.28C1821.87 1379.29 1823.85 1380.76 1825.45 1382.68C1827.1 1384.55 1828.35 1386.81 1829.21 1389.48C1830.06 1392.15 1830.49 1395.11 1830.49 1398.36C1830.49 1401.67 1830.06 1404.65 1829.21 1407.32C1828.35 1409.93 1827.1 1412.2 1825.45 1414.12C1823.85 1415.99 1821.87 1417.43 1819.53 1418.44C1817.23 1419.45 1814.65 1419.96 1811.77 1419.96ZM1811.77 1414.44C1815.34 1414.44 1818.22 1413.37 1820.41 1411.24C1822.59 1409.11 1823.69 1405.8 1823.69 1401.32V1395.4C1823.69 1390.92 1822.59 1387.61 1820.41 1385.48C1818.22 1383.35 1815.34 1382.28 1811.77 1382.28C1808.19 1382.28 1805.31 1383.35 1803.13 1385.48C1800.94 1387.61 1799.85 1390.92 1799.85 1395.4V1401.32C1799.85 1405.8 1800.94 1409.11 1803.13 1411.24C1805.31 1413.37 1808.19 1414.44 1811.77 1414.44ZM1858.37 1413.56H1872.29V1383.16H1857.57V1377.72H1872.29V1369.24C1872.29 1366.47 1873.01 1364.2 1874.45 1362.44C1875.95 1360.68 1878.27 1359.8 1881.41 1359.8H1895.25V1365.24H1878.69V1377.72H1895.25V1383.16H1878.69V1413.56H1893.41V1419H1858.37V1413.56ZM1941.7 1419C1938.56 1419 1936.24 1418.12 1934.74 1416.36C1933.3 1414.6 1932.58 1412.33 1932.58 1409.56V1383.16H1918.82V1377.72H1929.06C1930.45 1377.72 1931.41 1377.45 1931.94 1376.92C1932.53 1376.33 1932.82 1375.35 1932.82 1373.96V1363.16H1938.98V1377.72H1957.78V1383.16H1938.98V1413.56H1957.78V1419H1941.7ZM1982.07 1377.72H1987.75L1992.47 1413.4H1993.19L2000.23 1377.72H2007.27L2014.31 1413.4H2015.03L2019.75 1377.72H2025.27L2018.95 1419H2010.63L2004.07 1384.44H2003.43L1996.71 1419H1988.39L1982.07 1377.72ZM2083.24 1419C2080.73 1419 2078.95 1418.36 2077.88 1417.08C2076.81 1415.8 2076.15 1414.2 2075.88 1412.28H2075.48C2074.57 1414.68 2073.11 1416.57 2071.08 1417.96C2069.11 1419.29 2066.44 1419.96 2063.08 1419.96C2058.76 1419.96 2055.32 1418.84 2052.76 1416.6C2050.2 1414.36 2048.92 1411.29 2048.92 1407.4C2048.92 1403.56 2050.31 1400.6 2053.08 1398.52C2055.91 1396.44 2060.44 1395.4 2066.68 1395.4H2075.48V1391.32C2075.48 1388.28 2074.63 1386.01 2072.92 1384.52C2071.21 1382.97 2068.79 1382.2 2065.64 1382.2C2062.87 1382.2 2060.6 1382.76 2058.84 1383.88C2057.08 1384.95 2055.67 1386.41 2054.6 1388.28L2050.28 1385.08C2050.81 1384.01 2051.53 1382.97 2052.44 1381.96C2053.35 1380.95 2054.47 1380.07 2055.8 1379.32C2057.13 1378.52 2058.65 1377.91 2060.36 1377.48C2062.07 1377 2063.96 1376.76 2066.04 1376.76C2070.89 1376.76 2074.73 1377.99 2077.56 1380.44C2080.44 1382.89 2081.88 1386.31 2081.88 1390.68V1413.4H2087.64V1419H2083.24ZM2064.2 1414.6C2065.85 1414.6 2067.35 1414.41 2068.68 1414.04C2070.07 1413.61 2071.27 1413.08 2072.28 1412.44C2073.29 1411.75 2074.07 1410.95 2074.6 1410.04C2075.19 1409.08 2075.48 1408.07 2075.48 1407V1400.2H2066.68C2062.84 1400.2 2060.04 1400.73 2058.28 1401.8C2056.52 1402.87 2055.64 1404.41 2055.64 1406.44V1408.12C2055.64 1410.25 2056.39 1411.88 2057.88 1413C2059.43 1414.07 2061.53 1414.6 2064.2 1414.6ZM2113.77 1413.56H2125.85V1383.16H2113.77V1377.72H2132.25V1388.12H2132.65C2133.5 1384.87 2135.1 1382.33 2137.45 1380.52C2139.85 1378.65 2142.89 1377.72 2146.57 1377.72H2152.33V1384.12H2144.57C2140.89 1384.12 2137.9 1385.19 2135.61 1387.32C2133.37 1389.45 2132.25 1392.25 2132.25 1395.72V1413.56H2148.25V1419H2113.77V1413.56ZM2196.3 1419.96C2193.31 1419.96 2190.62 1419.45 2188.22 1418.44C2185.87 1417.43 2183.84 1415.99 2182.14 1414.12C2180.48 1412.2 2179.2 1409.93 2178.3 1407.32C2177.39 1404.65 2176.94 1401.69 2176.94 1398.44C2176.94 1395.13 2177.39 1392.15 2178.3 1389.48C2179.26 1386.81 2180.56 1384.55 2182.22 1382.68C2183.87 1380.76 2185.84 1379.29 2188.14 1378.28C2190.48 1377.27 2193.07 1376.76 2195.9 1376.76C2198.67 1376.76 2201.18 1377.27 2203.42 1378.28C2205.71 1379.29 2207.66 1380.71 2209.26 1382.52C2210.86 1384.28 2212.08 1386.39 2212.94 1388.84C2213.79 1391.29 2214.22 1393.99 2214.22 1396.92V1399.96H2183.66V1401.88C2183.66 1403.69 2183.95 1405.37 2184.54 1406.92C2185.12 1408.47 2185.95 1409.8 2187.02 1410.92C2188.14 1412.04 2189.47 1412.92 2191.02 1413.56C2192.62 1414.15 2194.38 1414.44 2196.3 1414.44C2199.07 1414.44 2201.47 1413.8 2203.5 1412.52C2205.52 1411.24 2207.07 1409.48 2208.14 1407.24L2212.86 1410.44C2211.63 1413.21 2209.58 1415.51 2206.7 1417.32C2203.87 1419.08 2200.4 1419.96 2196.3 1419.96ZM2195.9 1382.04C2194.14 1382.04 2192.51 1382.36 2191.02 1383C2189.52 1383.64 2188.22 1384.52 2187.1 1385.64C2186.03 1386.76 2185.18 1388.09 2184.54 1389.64C2183.95 1391.13 2183.66 1392.79 2183.66 1394.6V1395.16H2207.34V1394.28C2207.34 1392.47 2207.04 1390.81 2206.46 1389.32C2205.92 1387.83 2205.15 1386.55 2204.14 1385.48C2203.18 1384.36 2201.98 1383.51 2200.54 1382.92C2199.15 1382.33 2197.6 1382.04 2195.9 1382.04Z" fill="white"/>
<defs>
<clipPath id="clip0_0_1">
<rect width="1342" height="1153" fill="white" transform="translate(587)"/>
</clipPath>
</defs>
</svg>
