<svg width="2588" height="1448" viewBox="0 0 2588 1448" fill="none" xmlns="http://www.w3.org/2000/svg">
<path d="M9.36269 117.552L5.63436 121.133C5.42282 121.337 5.19588 121.485 4.95353 121.579C4.71117 121.674 4.46524 121.711 4.21573 121.692C3.97084 121.678 3.72699 121.611 3.48417 121.493C3.24617 121.371 3.02325 121.201 2.81541 120.985C2.44593 120.6 2.23966 120.188 2.19661 119.749C2.15837 119.305 2.28258 118.871 2.56926 118.448L3.24608 118.907C3.16821 119.028 3.10208 119.152 3.04768 119.278C3.00271 119.404 2.9789 119.534 2.97626 119.666C2.98304 119.798 3.01569 119.933 3.07422 120.071C3.13275 120.209 3.22898 120.347 3.36292 120.487C3.62618 120.761 3.90631 120.898 4.20333 120.9C4.50978 120.901 4.82887 120.742 5.16059 120.424L8.25431 117.452L6.5085 115.634L7.03494 115.129L9.36269 117.552ZM8.58699 126.82C8.36992 126.594 8.27289 126.377 8.2959 126.17C8.31892 125.963 8.40541 125.764 8.5554 125.574L8.52076 125.538C8.2259 125.664 7.92822 125.696 7.62771 125.633C7.33664 125.571 7.04561 125.388 6.75464 125.085C6.38054 124.696 6.1836 124.289 6.16383 123.864C6.14406 123.439 6.30966 123.058 6.66062 122.721C7.00677 122.389 7.39367 122.257 7.82134 122.327C8.25362 122.402 8.73994 122.721 9.28031 123.283L10.0424 124.076L10.4102 123.723C10.6842 123.46 10.8146 123.187 10.8014 122.903C10.7931 122.616 10.6526 122.33 10.3801 122.046C10.14 121.796 9.89321 121.64 9.63984 121.579C9.39127 121.512 9.13667 121.512 8.87603 121.578L8.79039 120.911C8.93273 120.867 9.08883 120.842 9.25869 120.836C9.42855 120.83 9.60486 120.854 9.78763 120.91C9.97521 120.961 10.1621 121.045 10.3484 121.162C10.5394 121.274 10.725 121.424 10.9052 121.611C11.3255 122.049 11.5474 122.501 11.571 122.968C11.5993 123.44 11.4163 123.866 11.0221 124.245L8.97402 126.212L9.47283 126.731L8.96802 127.216L8.58699 126.82ZM7.3348 124.722C7.47798 124.871 7.62412 124.99 7.77324 125.078C7.93178 125.166 8.08378 125.228 8.22922 125.264C8.37947 125.295 8.51856 125.295 8.64647 125.265C8.78381 125.235 8.90056 125.173 8.99671 125.081L9.60969 124.492L8.84763 123.699C8.51509 123.353 8.22454 123.146 7.97598 123.08C7.72741 123.014 7.51178 123.068 7.32909 123.244L7.17765 123.389C6.98535 123.574 6.90337 123.782 6.93173 124.014C6.96952 124.246 7.10387 124.482 7.3348 124.722ZM11.0367 129.37L13.4762 124.461L14.0374 125.045L12.9923 127.075L11.8663 129.266L11.894 129.295L14.1285 128.258L16.1988 127.295L16.7461 127.865L11.7434 130.105L11.0367 129.37ZM16.895 135.468C16.6779 135.242 16.5809 135.025 16.6039 134.818C16.6269 134.611 16.7134 134.413 16.8634 134.222L16.8287 134.186C16.5339 134.312 16.2362 134.344 15.9357 134.281C15.6446 134.219 15.3536 134.036 15.0626 133.734C14.6885 133.344 14.4916 132.937 14.4718 132.512C14.452 132.088 14.6176 131.707 14.9686 131.369C15.3147 131.037 15.7017 130.906 16.1293 130.975C16.5616 131.05 17.0479 131.369 17.5883 131.931L18.3504 132.724L18.7181 132.371C18.9922 132.108 19.1226 131.835 19.1094 131.552C19.1011 131.264 18.9606 130.978 18.6881 130.694C18.448 130.444 18.2012 130.289 17.9478 130.227C17.6993 130.161 17.4447 130.16 17.184 130.226L17.0984 129.559C17.2407 129.515 17.3968 129.49 17.5667 129.484C17.7365 129.478 17.9128 129.502 18.0956 129.558C18.2832 129.609 18.4701 129.693 18.6564 129.81C18.8474 129.922 19.033 130.072 19.2131 130.259C19.6334 130.697 19.8554 131.149 19.879 131.616C19.9073 132.089 19.7243 132.514 19.3301 132.893L17.282 134.86L17.7808 135.379L17.276 135.864L16.895 135.468ZM15.6428 133.37C15.786 133.519 15.9321 133.638 16.0812 133.726C16.2398 133.814 16.3918 133.876 16.5372 133.912C16.6875 133.943 16.8265 133.943 16.9545 133.913C17.0918 133.883 17.2085 133.821 17.3047 133.729L17.9177 133.14L17.1556 132.347C16.8231 132.001 16.5325 131.795 16.284 131.728C16.0354 131.662 15.8198 131.717 15.6371 131.892L15.4856 132.038C15.2933 132.222 15.2114 132.43 15.2397 132.662C15.2775 132.894 15.4119 133.13 15.6428 133.37ZM19.5976 138.454C19.1635 138.002 18.8896 137.554 18.776 137.108C18.6671 136.658 18.6524 136.215 18.7319 135.778L19.5151 135.871C19.4593 136.304 19.4752 136.686 19.5628 137.018C19.6551 137.354 19.8467 137.674 20.1377 137.977C20.4887 138.342 20.8407 138.54 21.1937 138.571C21.5467 138.602 21.8746 138.472 22.1775 138.181C22.4227 137.945 22.5456 137.693 22.5463 137.424C22.5518 137.151 22.4171 136.813 22.1423 136.412L21.6957 135.759C21.5034 135.473 21.3697 135.203 21.2946 134.952C21.2241 134.705 21.2004 134.474 21.2236 134.258C21.2516 134.036 21.317 133.835 21.4196 133.653C21.5271 133.467 21.6602 133.297 21.8188 133.145C22.2804 132.702 22.7744 132.518 23.3009 132.595C23.8275 132.671 24.3378 132.967 24.832 133.481C25.22 133.885 25.4783 134.289 25.6069 134.692C25.7402 135.1 25.7651 135.506 25.6815 135.91L24.905 135.838C24.9537 135.523 24.9411 135.211 24.8672 134.903C24.7932 134.596 24.6061 134.285 24.3059 133.973C23.978 133.631 23.6541 133.439 23.3344 133.395C23.0147 133.35 22.7106 133.467 22.4221 133.744C22.1962 133.961 22.0757 134.206 22.0608 134.479C22.0553 134.753 22.1922 135.097 22.4715 135.513L22.8973 136.144C23.0896 136.431 23.2233 136.7 23.2984 136.951C23.3735 137.203 23.3995 137.437 23.3763 137.653C23.3577 137.874 23.2947 138.078 23.1872 138.265C23.0797 138.451 22.9443 138.623 22.7808 138.78C22.3145 139.228 21.8013 139.425 21.2413 139.371C20.6859 139.322 20.138 139.017 19.5976 138.454ZM23.8902 142.923C23.6316 142.653 23.4463 142.369 23.3344 142.07C23.232 141.771 23.1956 141.468 23.2253 141.162C23.255 140.856 23.3531 140.55 23.5196 140.242C23.6907 139.939 23.9229 139.646 24.2162 139.365C24.5094 139.083 24.8132 138.865 25.1275 138.711C25.4418 138.557 25.7523 138.471 26.0591 138.454C26.3708 138.432 26.6716 138.48 26.9615 138.599C27.2515 138.718 27.5234 138.91 27.7775 139.174C28.1238 139.535 28.3263 139.904 28.3847 140.283C28.4431 140.661 28.3957 141.026 28.2425 141.376L27.5539 141.15C27.6816 140.898 27.7221 140.642 27.6754 140.382C27.6334 140.126 27.5016 139.883 27.2799 139.652C27.1182 139.484 26.9439 139.36 26.7569 139.281C26.5793 139.202 26.3961 139.165 26.2074 139.171C26.0187 139.177 25.8316 139.222 25.6459 139.308C25.465 139.399 25.2927 139.523 25.1293 139.68L24.4947 140.29C24.3312 140.447 24.2005 140.614 24.1027 140.791C24.0095 140.973 23.9562 141.158 23.943 141.346C23.9298 141.535 23.959 141.724 24.0307 141.914C24.1071 142.099 24.2284 142.279 24.3947 142.452C24.6349 142.702 24.8912 142.853 25.1636 142.906C25.436 142.958 25.7193 142.936 26.0136 142.838L26.1273 143.519C25.7711 143.649 25.3981 143.674 25.0083 143.596C24.6231 143.522 24.2504 143.298 23.8902 142.923ZM26.9515 144.954L27.9976 146.043L30.738 143.411L29.6919 142.322L30.1822 141.851L31.7826 143.517L30.8451 144.417L30.8797 144.453C31.2469 144.248 31.6138 144.173 31.9805 144.228C32.3566 144.282 32.704 144.476 33.0226 144.807L33.5214 145.327L32.9445 145.881L32.2725 145.181C31.9538 144.85 31.5991 144.673 31.2082 144.651C30.8219 144.634 30.4725 144.775 30.16 145.075L28.5518 146.62L29.9374 148.063L29.447 148.534L26.4611 145.425L26.9515 144.954ZM36.9249 147.224C36.7633 147.056 36.6838 146.906 36.6864 146.774C36.6939 146.637 36.7505 146.518 36.8563 146.416L36.9716 146.305C37.0774 146.204 37.1963 146.154 37.3282 146.157C37.465 146.155 37.6142 146.238 37.7759 146.406C37.9375 146.575 38.0146 146.727 38.0072 146.864C38.0045 146.996 37.9503 147.112 37.8445 147.214L37.7292 147.325C37.6234 147.427 37.5021 147.478 37.3653 147.48C37.2334 147.478 37.0866 147.392 36.9249 147.224ZM31.3064 149.488L32.595 150.829L35.3353 148.196L34.0467 146.855L34.5371 146.384L36.3799 148.302L33.1492 151.406L34.3546 152.661L33.8643 153.132L30.816 149.959L31.3064 149.488ZM38.6149 150.629L39.1691 151.206L38.5634 151.788L38.5911 151.816C39.2836 151.613 39.8815 151.774 40.3849 152.298C40.8237 152.755 40.9948 153.274 40.8982 153.857C40.8063 154.445 40.4526 155.034 39.8372 155.625C39.2219 156.216 38.6188 156.546 38.0281 156.614C37.4419 156.687 36.9295 156.496 36.4907 156.039C35.9873 155.515 35.8509 154.911 36.0815 154.227L36.0538 154.198L34.0057 156.166L33.4515 155.589L38.6149 150.629ZM36.788 155.324C37.1113 155.66 37.4616 155.823 37.8391 155.811C38.2259 155.8 38.5876 155.633 38.9241 155.31L39.5588 154.7C39.8953 154.377 40.0745 154.024 40.0963 153.643C40.1275 153.262 39.9814 152.903 39.6581 152.566C39.5334 152.436 39.3988 152.33 39.2543 152.247C39.1098 152.164 38.9624 152.111 38.8119 152.09C38.6663 152.063 38.52 152.07 38.373 152.109C38.2355 152.149 38.1042 152.229 37.9792 152.349L36.6379 153.637C36.5129 153.757 36.4254 153.888 36.3755 154.028C36.3349 154.169 36.3226 154.315 36.3384 154.466C36.359 154.612 36.4079 154.76 36.4851 154.907C36.5623 155.055 36.6633 155.194 36.788 155.324ZM40.6412 160.186C40.3687 159.902 40.2471 159.617 40.2764 159.33C40.3104 159.048 40.4524 158.787 40.7024 158.547L43.0822 156.26L41.8906 155.02L42.3809 154.549L43.2677 155.472C43.3878 155.597 43.495 155.66 43.5892 155.662C43.6929 155.664 43.8073 155.605 43.9323 155.485L44.9058 154.55L45.4392 155.105L44.1268 156.366L45.7548 158.061L45.2644 158.532L43.6364 156.837L40.896 159.47L42.5241 161.165L42.0337 161.636L40.6412 160.186ZM48.7111 168.716C48.5217 168.519 48.4286 168.341 48.4319 168.18C48.4397 168.025 48.5061 167.887 48.6311 167.767L48.7609 167.642C48.8859 167.522 49.0262 167.461 49.1818 167.46C49.3421 167.463 49.5169 167.563 49.7063 167.76C49.8956 167.957 49.9864 168.134 49.9785 168.289C49.9753 168.449 49.9112 168.589 49.7862 168.71L49.6564 168.834C49.5314 168.954 49.3888 169.013 49.2286 169.01C49.0729 169.011 48.9004 168.913 48.7111 168.716ZM57.1568 177.551C56.5656 176.936 56.3481 176.262 56.5042 175.529C56.665 174.802 57.166 174.034 58.0074 173.226C58.8487 172.417 59.6361 171.948 60.3696 171.816C61.1076 171.689 61.7723 171.934 62.3634 172.549C62.5851 172.78 62.7455 173.009 62.8447 173.238C62.9438 173.466 62.9983 173.691 63.008 173.913C63.0177 174.135 62.9945 174.351 62.9384 174.562C62.8871 174.769 62.8241 174.968 62.7496 175.16L62.0128 174.869C62.0818 174.719 62.1367 174.57 62.1774 174.42C62.2229 174.265 62.2425 174.112 62.2361 173.961C62.2391 173.81 62.2092 173.659 62.1462 173.507C62.0879 173.359 61.9848 173.209 61.837 173.055C61.4537 172.656 61.0159 172.503 60.5236 172.597C60.036 172.696 59.5398 172.988 59.035 173.473L58.2129 174.262C57.7081 174.747 57.3966 175.231 57.2785 175.715C57.1649 176.203 57.2999 176.646 57.6832 177.045C57.831 177.199 57.9773 177.308 58.1222 177.372C58.2717 177.441 58.4195 177.48 58.5655 177.487C58.7209 177.495 58.8744 177.482 59.026 177.447C59.1824 177.408 59.3366 177.357 59.4888 177.294L59.7496 178.042C59.5501 178.113 59.3462 178.17 59.1379 178.213C58.9296 178.256 58.7148 178.268 58.4936 178.25C58.2724 178.231 58.0497 178.168 57.8255 178.06C57.6014 177.951 57.3785 177.782 57.1568 177.551ZM61.1376 181.695C60.7034 181.243 60.4295 180.794 60.3159 180.349C60.207 179.899 60.1923 179.455 60.2718 179.018L61.055 179.112C60.9992 179.544 61.0151 179.927 61.1027 180.258C61.195 180.595 61.3866 180.915 61.6776 181.218C62.0286 181.583 62.3806 181.781 62.7336 181.812C63.0866 181.842 63.4146 181.712 63.7174 181.421C63.9626 181.186 64.0856 180.934 64.0862 180.665C64.0917 180.391 63.957 180.054 63.6822 179.652L63.2356 179C63.0433 178.713 62.9096 178.444 62.8345 178.193C62.764 177.946 62.7403 177.715 62.7635 177.498C62.7916 177.277 62.8569 177.076 62.9596 176.894C63.067 176.707 63.2001 176.538 63.3587 176.386C63.8203 175.942 64.3143 175.759 64.8409 175.835C65.3674 175.912 65.8778 176.207 66.3719 176.722C66.7599 177.126 67.0182 177.529 67.1468 177.933C67.2801 178.341 67.305 178.747 67.2214 179.151L66.4449 179.078C66.4937 178.763 66.481 178.452 66.4071 178.144C66.3331 177.836 66.146 177.526 65.8458 177.213C65.5179 176.872 65.194 176.679 64.8743 176.635C64.5546 176.591 64.2505 176.708 63.962 176.985C63.7361 177.202 63.6156 177.447 63.6007 177.72C63.5952 177.993 63.7321 178.338 64.0114 178.754L64.4372 179.385C64.6295 179.671 64.7632 179.941 64.8383 180.192C64.9134 180.443 64.9394 180.677 64.9162 180.894C64.8976 181.115 64.8346 181.319 64.7271 181.505C64.6196 181.692 64.4842 181.863 64.3207 182.02C63.8544 182.468 63.3412 182.666 62.7812 182.612C62.2258 182.563 61.6779 182.257 61.1376 181.695ZM65.2915 186.019C64.8574 185.567 64.5835 185.118 64.4699 184.673C64.361 184.223 64.3463 183.779 64.4258 183.342L65.209 183.436C65.1532 183.868 65.1691 184.251 65.2567 184.582C65.349 184.919 65.5406 185.239 65.8316 185.542C66.1826 185.907 66.5346 186.105 66.8876 186.136C67.2406 186.166 67.5685 186.036 67.8714 185.745C68.1166 185.51 68.2395 185.258 68.2402 184.989C68.2457 184.716 68.111 184.378 67.8362 183.976L67.3896 183.324C67.1973 183.037 67.0636 182.768 66.9885 182.517C66.918 182.27 66.8943 182.039 66.9175 181.822C66.9455 181.601 67.0109 181.4 67.1135 181.218C67.221 181.031 67.3541 180.862 67.5127 180.71C67.9743 180.266 68.4683 180.083 68.9948 180.159C69.5214 180.236 70.0318 180.531 70.5259 181.046C70.9139 181.45 71.1722 181.853 71.3008 182.257C71.4341 182.665 71.459 183.071 71.3754 183.475L70.5989 183.402C70.6476 183.088 70.635 182.776 70.5611 182.468C70.4871 182.16 70.3 181.85 69.9998 181.537C69.6719 181.196 69.348 181.003 69.0283 180.959C68.7086 180.915 68.4045 181.032 68.116 181.309C67.8901 181.526 67.7696 181.771 67.7547 182.044C67.7492 182.317 67.8861 182.662 68.1654 183.078L68.5912 183.709C68.7835 183.995 68.9172 184.265 68.9923 184.516C69.0674 184.767 69.0934 185.001 69.0702 185.218C69.0516 185.439 68.9886 185.643 68.8811 185.829C68.7736 186.016 68.6382 186.187 68.4747 186.344C68.0084 186.792 67.4952 186.99 66.9352 186.936C66.3798 186.887 65.8319 186.581 65.2915 186.019ZM73.635 194.661C73.4457 194.464 73.3526 194.285 73.3558 194.125C73.3636 193.969 73.4301 193.831 73.555 193.711L73.6849 193.587C73.8099 193.467 73.9502 193.406 74.1058 193.404C74.266 193.407 74.4408 193.508 74.6302 193.705C74.8196 193.902 74.9103 194.078 74.9025 194.233C74.8993 194.394 74.8352 194.534 74.7102 194.654L74.5804 194.779C74.4554 194.899 74.3127 194.957 74.1525 194.954C73.9969 194.956 73.8244 194.858 73.635 194.661ZM85.2361 202.031L83.3518 200.07L81.0657 202.266L80.4838 201.66L85.5174 196.824L86.0993 197.43L83.8782 199.564L85.7626 201.525L87.9837 199.392L88.5656 199.997L83.532 204.833L82.9501 204.227L85.2361 202.031ZM90.96 203.543L86.4529 207.873L85.8709 207.268L90.3781 202.938L88.7639 201.257L89.2904 200.752L93.1007 204.718L92.5742 205.224L90.96 203.543ZM93.9137 210.588L95.5075 209.057L95.452 208.999L91.8447 210.426L93.4152 206.879L93.3598 206.821L91.7661 208.352L89.2421 210.777L88.7086 210.221L93.7422 205.386L94.4904 206.165L93.1214 209.185L93.163 209.229L96.2363 207.982L96.9568 208.732L91.9232 213.568L91.3897 213.012L93.9137 210.588ZM93.2229 214.921L98.2565 210.085L98.8384 210.691L94.3313 215.021L96.6244 217.408L96.0979 217.913L93.2229 214.921Z" fill="black"/>
<g clip-path="url(#clip0_0_1)">
<path d="M1307.85 31.6666C1573.03 31.6666 1790.99 218.543 1811.18 455.044L1717.78 370.125L1693.16 392.514L1817.97 506H1842.59L1979 381.955L1954.38 359.566L1846.34 457.817C1827.57 202.52 1593.31 0 1307.85 0C1010.16 0 768 220.207 768 490.863H802.83C802.83 237.671 1029.39 31.6666 1307.85 31.6666Z" fill="black"/>
<path d="M1317 994.098C1051.87 994.098 833.963 817.558 813.786 594.138L907.157 674.36L931.775 653.209L806.993 546H782.375L646 663.171L670.618 684.322L778.631 591.521C797.399 832.697 1031.61 1024.02 1317 1024.02C1614.62 1024.02 1856.73 816.003 1856.73 560.302H1821.9C1821.9 799.488 1595.39 994.098 1317 994.098Z" fill="black"/>
</g>
<path d="M660.715 1154.5V1116.93H659.355L634.365 1177.96L609.375 1116.93H608.015V1154.5V1214H594.925V1095.34H613.285L634.195 1147.7H635.215L656.125 1095.34H673.805V1214H660.715V1154.5ZM775.739 1106.9C771.772 1106.9 768.995 1106.11 767.409 1104.52C765.822 1102.82 765.029 1100.72 765.029 1098.23V1095.51C765.029 1093.02 765.822 1090.98 767.409 1089.39C768.995 1087.69 771.772 1086.84 775.739 1086.84C779.705 1086.84 782.482 1087.69 784.069 1089.39C785.655 1090.98 786.449 1093.02 786.449 1095.51V1098.23C786.449 1100.72 785.655 1102.82 784.069 1104.52C782.482 1106.11 779.705 1106.9 775.739 1106.9ZM737.319 1202.44H768.939V1137.84H737.319V1126.28H782.539V1202.44H812.119V1214H737.319V1202.44ZM950.602 1224.03C950.602 1232.87 946.919 1239.39 939.552 1243.58C932.186 1247.89 921.136 1250.04 906.402 1250.04C892.236 1250.04 882.036 1248.17 875.802 1244.43C869.682 1240.69 866.622 1235.31 866.622 1228.28C866.622 1223.52 867.869 1219.84 870.362 1217.23C872.856 1214.62 876.369 1212.7 880.902 1211.45V1209.41C878.409 1208.16 876.482 1206.58 875.122 1204.65C873.762 1202.72 873.082 1200.29 873.082 1197.34C873.082 1192.81 874.556 1189.41 877.502 1187.14C880.562 1184.87 884.359 1183.17 888.892 1182.04V1181.36C883.452 1178.98 879.202 1175.47 876.142 1170.82C873.196 1166.17 871.722 1160.73 871.722 1154.5C871.722 1150.08 872.516 1146 874.102 1142.26C875.689 1138.52 877.956 1135.35 880.902 1132.74C883.962 1130.02 887.589 1127.92 891.782 1126.45C895.976 1124.98 900.622 1124.24 905.722 1124.24C912.296 1124.24 918.076 1125.43 923.062 1127.81V1126.28C923.062 1122.88 923.856 1120.05 925.442 1117.78C927.029 1115.51 929.749 1114.38 933.602 1114.38H949.752V1126.28H930.032V1132.23C933.206 1134.95 935.642 1138.18 937.342 1141.92C939.042 1145.66 939.892 1149.85 939.892 1154.5C939.892 1158.92 939.042 1163 937.342 1166.74C935.756 1170.48 933.489 1173.71 930.542 1176.43C927.596 1179.04 923.969 1181.08 919.662 1182.55C915.469 1184.02 910.822 1184.76 905.722 1184.76C904.249 1184.76 902.832 1184.7 901.472 1184.59C900.112 1184.48 898.752 1184.31 897.392 1184.08C896.032 1184.31 894.616 1184.7 893.142 1185.27C891.669 1185.72 890.309 1186.4 889.062 1187.31C887.816 1188.1 886.796 1189.07 886.002 1190.2C885.209 1191.33 884.812 1192.64 884.812 1194.11C884.812 1196.72 886.116 1198.47 888.722 1199.38C891.329 1200.17 894.729 1200.57 898.922 1200.57H918.302C929.636 1200.57 937.852 1202.72 942.952 1207.03C948.052 1211.22 950.602 1216.89 950.602 1224.03ZM937.852 1224.71C937.852 1221.2 936.436 1218.36 933.602 1216.21C930.769 1214.17 925.839 1213.15 918.812 1213.15H888.382C882.489 1215.53 879.542 1219.5 879.542 1225.05C879.542 1228.9 881.072 1232.19 884.132 1234.91C887.192 1237.74 892.292 1239.16 899.432 1239.16H912.692C920.626 1239.16 926.802 1237.91 931.222 1235.42C935.642 1233.04 937.852 1229.47 937.852 1224.71ZM905.722 1174.22C912.522 1174.22 917.509 1172.63 920.682 1169.46C923.969 1166.29 925.612 1162.09 925.612 1156.88V1151.95C925.612 1146.74 923.969 1142.6 920.682 1139.54C917.509 1136.37 912.522 1134.78 905.722 1134.78C898.922 1134.78 893.936 1136.37 890.762 1139.54C887.589 1142.6 886.002 1146.74 886.002 1151.95V1156.88C886.002 1162.09 887.589 1166.29 890.762 1169.46C893.936 1172.63 898.922 1174.22 905.722 1174.22ZM1062.91 1199.72H1062.23C1061.32 1201.87 1060.19 1203.97 1058.83 1206.01C1057.47 1207.94 1055.77 1209.64 1053.73 1211.11C1051.8 1212.58 1049.48 1213.77 1046.76 1214.68C1044.04 1215.59 1040.86 1216.04 1037.24 1216.04C1028.06 1216.04 1020.69 1213.15 1015.14 1207.37C1009.58 1201.48 1006.81 1193.2 1006.81 1182.55V1126.28H1020.41V1180.17C1020.41 1188.22 1022.16 1194.22 1025.68 1198.19C1029.19 1202.04 1034.35 1203.97 1041.15 1203.97C1043.87 1203.97 1046.53 1203.63 1049.14 1202.95C1051.74 1202.27 1054.07 1201.25 1056.11 1199.89C1058.15 1198.53 1059.79 1196.83 1061.04 1194.79C1062.28 1192.64 1062.91 1190.09 1062.91 1187.14V1126.28H1076.51V1214H1062.91V1199.72ZM1179.63 1216.04C1173.28 1216.04 1167.56 1214.96 1162.46 1212.81C1157.47 1210.66 1153.17 1207.6 1149.54 1203.63C1146.03 1199.55 1143.31 1194.73 1141.38 1189.18C1139.45 1183.51 1138.49 1177.22 1138.49 1170.31C1138.49 1163.28 1139.45 1156.94 1141.38 1151.27C1143.42 1145.6 1146.2 1140.79 1149.71 1136.82C1153.22 1132.74 1157.42 1129.62 1162.29 1127.47C1167.28 1125.32 1172.77 1124.24 1178.78 1124.24C1184.67 1124.24 1190 1125.32 1194.76 1127.47C1199.63 1129.62 1203.77 1132.63 1207.17 1136.48C1210.57 1140.22 1213.18 1144.7 1214.99 1149.91C1216.8 1155.12 1217.71 1160.85 1217.71 1167.08V1173.54H1152.77V1177.62C1152.77 1181.47 1153.39 1185.04 1154.64 1188.33C1155.89 1191.62 1157.64 1194.45 1159.91 1196.83C1162.29 1199.21 1165.12 1201.08 1168.41 1202.44C1171.81 1203.69 1175.55 1204.31 1179.63 1204.31C1185.52 1204.31 1190.62 1202.95 1194.93 1200.23C1199.24 1197.51 1202.52 1193.77 1204.79 1189.01L1214.82 1195.81C1212.21 1201.7 1207.85 1206.58 1201.73 1210.43C1195.72 1214.17 1188.36 1216.04 1179.63 1216.04ZM1178.78 1135.46C1175.04 1135.46 1171.58 1136.14 1168.41 1137.5C1165.24 1138.86 1162.46 1140.73 1160.08 1143.11C1157.81 1145.49 1156 1148.32 1154.64 1151.61C1153.39 1154.78 1152.77 1158.3 1152.77 1162.15V1163.34H1203.09V1161.47C1203.09 1157.62 1202.47 1154.1 1201.22 1150.93C1200.09 1147.76 1198.44 1145.04 1196.29 1142.77C1194.25 1140.39 1191.7 1138.58 1188.64 1137.33C1185.69 1136.08 1182.41 1135.46 1178.78 1135.46ZM1276.63 1202.44H1307.23V1099.76H1276.63V1088.2H1320.83V1202.44H1351.43V1214H1276.63V1202.44ZM1552.24 1236.44H1594.74V1137.84H1550.71V1126.28H1608.34V1227.94C1608.34 1233.83 1606.75 1238.65 1603.58 1242.39C1600.52 1246.13 1595.65 1248 1588.96 1248H1552.24V1236.44ZM1601.54 1106.9C1597.57 1106.9 1594.8 1106.11 1593.21 1104.52C1591.62 1102.82 1590.83 1100.72 1590.83 1098.23V1095.51C1590.83 1093.02 1591.62 1090.98 1593.21 1089.39C1594.8 1087.69 1597.57 1086.84 1601.54 1086.84C1605.51 1086.84 1608.28 1087.69 1609.87 1089.39C1611.46 1090.98 1612.25 1093.02 1612.25 1095.51V1098.23C1612.25 1100.72 1611.46 1102.82 1609.87 1104.52C1608.28 1106.11 1605.51 1106.9 1601.54 1106.9ZM1742.57 1199.72H1741.89C1740.99 1201.87 1739.85 1203.97 1738.49 1206.01C1737.13 1207.94 1735.43 1209.64 1733.39 1211.11C1731.47 1212.58 1729.14 1213.77 1726.42 1214.68C1723.7 1215.59 1720.53 1216.04 1716.9 1216.04C1707.72 1216.04 1700.36 1213.15 1694.8 1207.37C1689.25 1201.48 1686.47 1193.2 1686.47 1182.55V1126.28H1700.07V1180.17C1700.07 1188.22 1701.83 1194.22 1705.34 1198.19C1708.86 1202.04 1714.01 1203.97 1720.81 1203.97C1723.53 1203.97 1726.2 1203.63 1728.8 1202.95C1731.41 1202.27 1733.73 1201.25 1735.77 1199.89C1737.81 1198.53 1739.46 1196.83 1740.7 1194.79C1741.95 1192.64 1742.57 1190.09 1742.57 1187.14V1126.28H1756.17V1214H1742.57V1199.72ZM1890.92 1214C1885.59 1214 1881.79 1212.64 1879.53 1209.92C1877.26 1207.2 1875.84 1203.8 1875.28 1199.72H1874.43C1872.5 1204.82 1869.38 1208.84 1865.08 1211.79C1860.88 1214.62 1855.22 1216.04 1848.08 1216.04C1838.9 1216.04 1831.59 1213.66 1826.15 1208.9C1820.71 1204.14 1817.99 1197.62 1817.99 1189.35C1817.99 1181.19 1820.93 1174.9 1826.83 1170.48C1832.83 1166.06 1842.47 1163.85 1855.73 1163.85H1874.43V1155.18C1874.43 1148.72 1872.61 1143.9 1868.99 1140.73C1865.36 1137.44 1860.2 1135.8 1853.52 1135.8C1847.62 1135.8 1842.81 1136.99 1839.07 1139.37C1835.33 1141.64 1832.32 1144.75 1830.06 1148.72L1820.88 1141.92C1822.01 1139.65 1823.54 1137.44 1825.47 1135.29C1827.39 1133.14 1829.77 1131.27 1832.61 1129.68C1835.44 1127.98 1838.67 1126.68 1842.3 1125.77C1845.92 1124.75 1849.95 1124.24 1854.37 1124.24C1864.68 1124.24 1872.84 1126.85 1878.85 1132.06C1884.97 1137.27 1888.03 1144.53 1888.03 1153.82V1202.1H1900.27V1214H1890.92ZM1850.46 1204.65C1853.97 1204.65 1857.14 1204.25 1859.98 1203.46C1862.92 1202.55 1865.47 1201.42 1867.63 1200.06C1869.78 1198.59 1871.42 1196.89 1872.56 1194.96C1873.8 1192.92 1874.43 1190.77 1874.43 1188.5V1174.05H1855.73C1847.57 1174.05 1841.62 1175.18 1837.88 1177.45C1834.14 1179.72 1832.27 1183 1832.27 1187.31V1190.88C1832.27 1195.41 1833.85 1198.87 1837.03 1201.25C1840.31 1203.52 1844.79 1204.65 1850.46 1204.65ZM1959.36 1214V1126.28H1972.96V1140.56H1973.64C1974.55 1138.41 1975.68 1136.37 1977.04 1134.44C1978.4 1132.4 1980.04 1130.64 1981.97 1129.17C1984.01 1127.7 1986.39 1126.51 1989.11 1125.6C1991.83 1124.69 1995 1124.24 1998.63 1124.24C2007.81 1124.24 2015.18 1127.19 2020.73 1133.08C2026.28 1138.86 2029.06 1147.08 2029.06 1157.73V1214H2015.46V1160.11C2015.46 1152.06 2013.7 1146.11 2010.19 1142.26C2006.68 1138.29 2001.52 1136.31 1994.72 1136.31C1992 1136.31 1989.34 1136.65 1986.73 1137.33C1984.12 1138.01 1981.8 1139.03 1979.76 1140.39C1977.72 1141.75 1976.08 1143.51 1974.83 1145.66C1973.58 1147.81 1972.96 1150.31 1972.96 1153.14V1214H1959.36Z" fill="black"/>
<path d="M74.863 1426V1418.63H94.003V1356.59H74.863V1349.22H122.383V1356.59H103.243V1418.63H122.383V1426H74.863ZM200.33 1416.76H199.89C196.223 1423.8 190.393 1427.32 182.4 1427.32C175.433 1427.32 169.97 1424.72 166.01 1419.51C162.123 1414.3 160.18 1407.01 160.18 1397.62C160.18 1388.23 162.123 1380.94 166.01 1375.73C169.97 1370.52 175.433 1367.92 182.4 1367.92C190.393 1367.92 196.223 1371.44 199.89 1378.48H200.33V1344.6H209.13V1426H200.33V1416.76ZM185.81 1419.51C187.79 1419.51 189.66 1419.25 191.42 1418.74C193.18 1418.23 194.72 1417.49 196.04 1416.54C197.36 1415.51 198.387 1414.3 199.12 1412.91C199.927 1411.44 200.33 1409.76 200.33 1407.85V1387.39C200.33 1385.48 199.927 1383.83 199.12 1382.44C198.387 1380.97 197.36 1379.76 196.04 1378.81C194.72 1377.78 193.18 1377.01 191.42 1376.5C189.66 1375.99 187.79 1375.73 185.81 1375.73C180.677 1375.73 176.68 1377.31 173.82 1380.46C171.033 1383.54 169.64 1387.65 169.64 1392.78V1402.46C169.64 1407.59 171.033 1411.74 173.82 1414.89C176.68 1417.97 180.677 1419.51 185.81 1419.51ZM275.527 1427.32C271.42 1427.32 267.717 1426.62 264.417 1425.23C261.19 1423.84 258.404 1421.86 256.057 1419.29C253.784 1416.65 252.024 1413.53 250.777 1409.94C249.53 1406.27 248.907 1402.2 248.907 1397.73C248.907 1393.18 249.53 1389.08 250.777 1385.41C252.097 1381.74 253.894 1378.63 256.167 1376.06C258.44 1373.42 261.154 1371.4 264.307 1370.01C267.534 1368.62 271.09 1367.92 274.977 1367.92C278.79 1367.92 282.237 1368.62 285.317 1370.01C288.47 1371.4 291.147 1373.35 293.347 1375.84C295.547 1378.26 297.234 1381.16 298.407 1384.53C299.58 1387.9 300.167 1391.61 300.167 1395.64V1399.82H258.147V1402.46C258.147 1404.95 258.55 1407.26 259.357 1409.39C260.164 1411.52 261.3 1413.35 262.767 1414.89C264.307 1416.43 266.14 1417.64 268.267 1418.52C270.467 1419.33 272.887 1419.73 275.527 1419.73C279.34 1419.73 282.64 1418.85 285.427 1417.09C288.214 1415.33 290.34 1412.91 291.807 1409.83L298.297 1414.23C296.61 1418.04 293.787 1421.2 289.827 1423.69C285.94 1426.11 281.174 1427.32 275.527 1427.32ZM274.977 1375.18C272.557 1375.18 270.32 1375.62 268.267 1376.5C266.214 1377.38 264.417 1378.59 262.877 1380.13C261.41 1381.67 260.237 1383.5 259.357 1385.63C258.55 1387.68 258.147 1389.96 258.147 1392.45V1393.22H290.707V1392.01C290.707 1389.52 290.304 1387.24 289.497 1385.19C288.764 1383.14 287.7 1381.38 286.307 1379.91C284.987 1378.37 283.337 1377.2 281.357 1376.39C279.45 1375.58 277.324 1375.18 274.977 1375.18ZM366.014 1356.7C363.447 1356.7 361.651 1356.19 360.624 1355.16C359.597 1354.06 359.084 1352.7 359.084 1351.09V1349.33C359.084 1347.72 359.597 1346.4 360.624 1345.37C361.651 1344.27 363.447 1343.72 366.014 1343.72C368.581 1343.72 370.377 1344.27 371.404 1345.37C372.431 1346.4 372.944 1347.72 372.944 1349.33V1351.09C372.944 1352.7 372.431 1354.06 371.404 1355.16C370.377 1356.19 368.581 1356.7 366.014 1356.7ZM341.154 1418.52H361.614V1376.72H341.154V1369.24H370.414V1418.52H389.554V1426H341.154V1418.52ZM471.901 1426C468.455 1426 465.998 1425.12 464.531 1423.36C463.065 1421.6 462.148 1419.4 461.781 1416.76H461.231C459.985 1420.06 457.968 1422.66 455.181 1424.57C452.468 1426.4 448.801 1427.32 444.181 1427.32C438.241 1427.32 433.511 1425.78 429.991 1422.7C426.471 1419.62 424.711 1415.4 424.711 1410.05C424.711 1404.77 426.618 1400.7 430.431 1397.84C434.318 1394.98 440.551 1393.55 449.131 1393.55H461.231V1387.94C461.231 1383.76 460.058 1380.64 457.711 1378.59C455.365 1376.46 452.028 1375.4 447.701 1375.4C443.888 1375.4 440.771 1376.17 438.351 1377.71C435.931 1379.18 433.988 1381.19 432.521 1383.76L426.581 1379.36C427.315 1377.89 428.305 1376.46 429.551 1375.07C430.798 1373.68 432.338 1372.47 434.171 1371.44C436.005 1370.34 438.095 1369.5 440.441 1368.91C442.788 1368.25 445.391 1367.92 448.251 1367.92C454.925 1367.92 460.205 1369.61 464.091 1372.98C468.051 1376.35 470.031 1381.05 470.031 1387.06V1418.3H477.951V1426H471.901ZM445.721 1419.95C447.995 1419.95 450.048 1419.69 451.881 1419.18C453.788 1418.59 455.438 1417.86 456.831 1416.98C458.225 1416.03 459.288 1414.93 460.021 1413.68C460.828 1412.36 461.231 1410.97 461.231 1409.5V1400.15H449.131C443.851 1400.15 440.001 1400.88 437.581 1402.35C435.161 1403.82 433.951 1405.94 433.951 1408.73V1411.04C433.951 1413.97 434.978 1416.21 437.031 1417.75C439.158 1419.22 442.055 1419.95 445.721 1419.95ZM539.068 1427.32C533.128 1427.32 527.995 1426.33 523.668 1424.35C519.415 1422.3 515.785 1419.58 512.778 1416.21L518.718 1411.04C521.432 1413.9 524.402 1416.1 527.628 1417.64C530.855 1419.18 534.742 1419.95 539.288 1419.95C543.688 1419.95 547.282 1419.18 550.068 1417.64C552.928 1416.03 554.358 1413.53 554.358 1410.16C554.358 1408.69 554.065 1407.48 553.478 1406.53C552.965 1405.5 552.232 1404.7 551.278 1404.11C550.325 1403.52 549.262 1403.08 548.088 1402.79C546.915 1402.42 545.668 1402.13 544.348 1401.91L535.438 1400.59C533.458 1400.3 531.295 1399.89 528.948 1399.38C526.675 1398.87 524.585 1398.06 522.678 1396.96C520.772 1395.79 519.158 1394.25 517.838 1392.34C516.592 1390.43 515.968 1387.94 515.968 1384.86C515.968 1382 516.518 1379.54 517.618 1377.49C518.792 1375.36 520.405 1373.6 522.458 1372.21C524.512 1370.74 526.932 1369.68 529.718 1369.02C532.505 1368.29 535.548 1367.92 538.848 1367.92C543.982 1367.92 548.418 1368.73 552.158 1370.34C555.972 1371.95 559.235 1374.19 561.948 1377.05L556.228 1382.44C555.568 1381.63 554.725 1380.83 553.698 1380.02C552.745 1379.14 551.535 1378.37 550.068 1377.71C548.675 1376.98 547.025 1376.39 545.118 1375.95C543.212 1375.51 541.012 1375.29 538.518 1375.29C534.045 1375.29 530.598 1376.06 528.178 1377.6C525.832 1379.14 524.658 1381.38 524.658 1384.31C524.658 1385.78 524.915 1387.02 525.428 1388.05C526.015 1389 526.785 1389.77 527.738 1390.36C528.692 1390.95 529.755 1391.42 530.928 1391.79C532.175 1392.08 533.422 1392.34 534.668 1392.56L543.578 1393.88C545.632 1394.17 547.795 1394.58 550.068 1395.09C552.342 1395.6 554.432 1396.45 556.338 1397.62C558.245 1398.72 559.822 1400.22 561.068 1402.13C562.388 1404.04 563.048 1406.53 563.048 1409.61C563.048 1415.26 560.848 1419.62 556.448 1422.7C552.122 1425.78 546.328 1427.32 539.068 1427.32ZM728.072 1416.76H727.632C723.966 1423.8 718.136 1427.32 710.142 1427.32C703.176 1427.32 697.712 1424.72 693.752 1419.51C689.866 1414.3 687.922 1407.01 687.922 1397.62C687.922 1388.23 689.866 1380.94 693.752 1375.73C697.712 1370.52 703.176 1367.92 710.142 1367.92C718.136 1367.92 723.966 1371.44 727.632 1378.48H728.072V1369.24H736.872V1448H728.072V1416.76ZM713.552 1419.51C715.532 1419.51 717.402 1419.25 719.162 1418.74C720.922 1418.23 722.462 1417.49 723.782 1416.54C725.102 1415.51 726.129 1414.3 726.862 1412.91C727.669 1411.44 728.072 1409.76 728.072 1407.85V1387.39C728.072 1385.48 727.669 1383.83 726.862 1382.44C726.129 1380.97 725.102 1379.76 723.782 1378.81C722.462 1377.78 720.922 1377.01 719.162 1376.5C717.402 1375.99 715.532 1375.73 713.552 1375.73C708.419 1375.73 704.422 1377.31 701.562 1380.46C698.776 1383.54 697.382 1387.65 697.382 1392.78V1402.46C697.382 1407.59 698.776 1411.74 701.562 1414.89C704.422 1417.97 708.419 1419.51 713.552 1419.51ZM815.699 1416.76H815.259C814.673 1418.15 813.939 1419.51 813.059 1420.83C812.179 1422.08 811.079 1423.18 809.759 1424.13C808.513 1425.08 807.009 1425.85 805.249 1426.44C803.489 1427.03 801.436 1427.32 799.089 1427.32C793.149 1427.32 788.383 1425.45 784.789 1421.71C781.196 1417.9 779.399 1412.54 779.399 1405.65V1369.24H788.199V1404.11C788.199 1409.32 789.336 1413.2 791.609 1415.77C793.883 1418.26 797.219 1419.51 801.619 1419.51C803.379 1419.51 805.103 1419.29 806.789 1418.85C808.476 1418.41 809.979 1417.75 811.299 1416.87C812.619 1415.99 813.683 1414.89 814.489 1413.57C815.296 1412.18 815.699 1410.53 815.699 1408.62V1369.24H824.499V1426H815.699V1416.76ZM891.226 1427.32C887.12 1427.32 883.416 1426.62 880.116 1425.23C876.89 1423.84 874.103 1421.86 871.756 1419.29C869.483 1416.65 867.723 1413.53 866.476 1409.94C865.23 1406.27 864.606 1402.2 864.606 1397.73C864.606 1393.18 865.23 1389.08 866.476 1385.41C867.796 1381.74 869.593 1378.63 871.866 1376.06C874.14 1373.42 876.853 1371.4 880.006 1370.01C883.233 1368.62 886.79 1367.92 890.676 1367.92C894.49 1367.92 897.936 1368.62 901.016 1370.01C904.17 1371.4 906.846 1373.35 909.046 1375.84C911.246 1378.26 912.933 1381.16 914.106 1384.53C915.28 1387.9 915.866 1391.61 915.866 1395.64V1399.82H873.846V1402.46C873.846 1404.95 874.25 1407.26 875.056 1409.39C875.863 1411.52 877 1413.35 878.466 1414.89C880.006 1416.43 881.84 1417.64 883.966 1418.52C886.166 1419.33 888.586 1419.73 891.226 1419.73C895.04 1419.73 898.34 1418.85 901.126 1417.09C903.913 1415.33 906.04 1412.91 907.506 1409.83L913.996 1414.23C912.31 1418.04 909.486 1421.2 905.526 1423.69C901.64 1426.11 896.873 1427.32 891.226 1427.32ZM890.676 1375.18C888.256 1375.18 886.02 1375.62 883.966 1376.5C881.913 1377.38 880.116 1378.59 878.576 1380.13C877.11 1381.67 875.936 1383.5 875.056 1385.63C874.25 1387.68 873.846 1389.96 873.846 1392.45V1393.22H906.406V1392.01C906.406 1389.52 906.003 1387.24 905.196 1385.19C904.463 1383.14 903.4 1381.38 902.006 1379.91C900.686 1378.37 899.036 1377.2 897.056 1376.39C895.15 1375.58 893.023 1375.18 890.676 1375.18ZM1066.81 1427.32C1060.87 1427.32 1055.74 1426.33 1051.41 1424.35C1047.16 1422.3 1043.53 1419.58 1040.52 1416.21L1046.46 1411.04C1049.17 1413.9 1052.14 1416.1 1055.37 1417.64C1058.6 1419.18 1062.48 1419.95 1067.03 1419.95C1071.43 1419.95 1075.02 1419.18 1077.81 1417.64C1080.67 1416.03 1082.1 1413.53 1082.1 1410.16C1082.1 1408.69 1081.81 1407.48 1081.22 1406.53C1080.71 1405.5 1079.97 1404.7 1079.02 1404.11C1078.07 1403.52 1077 1403.08 1075.83 1402.79C1074.66 1402.42 1073.41 1402.13 1072.09 1401.91L1063.18 1400.59C1061.2 1400.3 1059.04 1399.89 1056.69 1399.38C1054.42 1398.87 1052.33 1398.06 1050.42 1396.96C1048.51 1395.79 1046.9 1394.25 1045.58 1392.34C1044.33 1390.43 1043.71 1387.94 1043.71 1384.86C1043.71 1382 1044.26 1379.54 1045.36 1377.49C1046.53 1375.36 1048.15 1373.6 1050.2 1372.21C1052.25 1370.74 1054.67 1369.68 1057.46 1369.02C1060.25 1368.29 1063.29 1367.92 1066.59 1367.92C1071.72 1367.92 1076.16 1368.73 1079.9 1370.34C1083.71 1371.95 1086.98 1374.19 1089.69 1377.05L1083.97 1382.44C1083.31 1381.63 1082.47 1380.83 1081.44 1380.02C1080.49 1379.14 1079.28 1378.37 1077.81 1377.71C1076.42 1376.98 1074.77 1376.39 1072.86 1375.95C1070.95 1375.51 1068.75 1375.29 1066.26 1375.29C1061.79 1375.29 1058.34 1376.06 1055.92 1377.6C1053.57 1379.14 1052.4 1381.38 1052.4 1384.31C1052.4 1385.78 1052.66 1387.02 1053.17 1388.05C1053.76 1389 1054.53 1389.77 1055.48 1390.36C1056.43 1390.95 1057.5 1391.42 1058.67 1391.79C1059.92 1392.08 1061.16 1392.34 1062.41 1392.56L1071.32 1393.88C1073.37 1394.17 1075.54 1394.58 1077.81 1395.09C1080.08 1395.6 1082.17 1396.45 1084.08 1397.62C1085.99 1398.72 1087.56 1400.22 1088.81 1402.13C1090.13 1404.04 1090.79 1406.53 1090.79 1409.61C1090.79 1415.26 1088.59 1419.62 1084.19 1422.7C1079.86 1425.78 1074.07 1427.32 1066.81 1427.32ZM1155.1 1427.32C1150.99 1427.32 1147.29 1426.62 1143.99 1425.23C1140.76 1423.84 1137.97 1421.86 1135.63 1419.29C1133.35 1416.65 1131.59 1413.53 1130.35 1409.94C1129.1 1406.27 1128.48 1402.2 1128.48 1397.73C1128.48 1393.18 1129.1 1389.08 1130.35 1385.41C1131.67 1381.74 1133.46 1378.63 1135.74 1376.06C1138.01 1373.42 1140.72 1371.4 1143.88 1370.01C1147.1 1368.62 1150.66 1367.92 1154.55 1367.92C1158.36 1367.92 1161.81 1368.62 1164.89 1370.01C1168.04 1371.4 1170.72 1373.35 1172.92 1375.84C1175.12 1378.26 1176.8 1381.16 1177.98 1384.53C1179.15 1387.9 1179.74 1391.61 1179.74 1395.64V1399.82H1137.72V1402.46C1137.72 1404.95 1138.12 1407.26 1138.93 1409.39C1139.73 1411.52 1140.87 1413.35 1142.34 1414.89C1143.88 1416.43 1145.71 1417.64 1147.84 1418.52C1150.04 1419.33 1152.46 1419.73 1155.1 1419.73C1158.91 1419.73 1162.21 1418.85 1165 1417.09C1167.78 1415.33 1169.91 1412.91 1171.38 1409.83L1177.87 1414.23C1176.18 1418.04 1173.36 1421.2 1169.4 1423.69C1165.51 1426.11 1160.74 1427.32 1155.1 1427.32ZM1154.55 1375.18C1152.13 1375.18 1149.89 1375.62 1147.84 1376.5C1145.78 1377.38 1143.99 1378.59 1142.45 1380.13C1140.98 1381.67 1139.81 1383.5 1138.93 1385.63C1138.12 1387.68 1137.72 1389.96 1137.72 1392.45V1393.22H1170.28V1392.01C1170.28 1389.52 1169.87 1387.24 1169.07 1385.19C1168.33 1383.14 1167.27 1381.38 1165.88 1379.91C1164.56 1378.37 1162.91 1377.2 1160.93 1376.39C1159.02 1375.58 1156.89 1375.18 1154.55 1375.18ZM1332.77 1426C1328.44 1426 1325.25 1424.79 1323.2 1422.37C1321.22 1419.95 1320.23 1416.83 1320.23 1413.02V1376.72H1301.31V1369.24H1315.39C1317.3 1369.24 1318.62 1368.87 1319.35 1368.14C1320.16 1367.33 1320.56 1365.98 1320.56 1364.07V1349.22H1329.03V1369.24H1354.88V1376.72H1329.03V1418.52H1354.88V1426H1332.77ZM1417.98 1427.32C1414.02 1427.32 1410.43 1426.62 1407.2 1425.23C1404.05 1423.84 1401.33 1421.86 1399.06 1419.29C1396.86 1416.65 1395.17 1413.53 1394 1409.94C1392.83 1406.27 1392.24 1402.17 1392.24 1397.62C1392.24 1393.15 1392.83 1389.08 1394 1385.41C1395.17 1381.74 1396.86 1378.63 1399.06 1376.06C1401.33 1373.42 1404.05 1371.4 1407.2 1370.01C1410.43 1368.62 1414.02 1367.92 1417.98 1367.92C1421.94 1367.92 1425.5 1368.62 1428.65 1370.01C1431.88 1371.4 1434.59 1373.42 1436.79 1376.06C1439.06 1378.63 1440.79 1381.74 1441.96 1385.41C1443.13 1389.08 1443.72 1393.15 1443.72 1397.62C1443.72 1402.17 1443.13 1406.27 1441.96 1409.94C1440.79 1413.53 1439.06 1416.65 1436.79 1419.29C1434.59 1421.86 1431.88 1423.84 1428.65 1425.23C1425.5 1426.62 1421.94 1427.32 1417.98 1427.32ZM1417.98 1419.73C1422.89 1419.73 1426.85 1418.26 1429.86 1415.33C1432.87 1412.4 1434.37 1407.85 1434.37 1401.69V1393.55C1434.37 1387.39 1432.87 1382.84 1429.86 1379.91C1426.85 1376.98 1422.89 1375.51 1417.98 1375.51C1413.07 1375.51 1409.11 1376.98 1406.1 1379.91C1403.09 1382.84 1401.59 1387.39 1401.59 1393.55V1401.69C1401.59 1407.85 1403.09 1412.4 1406.1 1415.33C1409.11 1418.26 1413.07 1419.73 1417.98 1419.73ZM1481.41 1418.52H1498.02V1376.72H1481.41V1369.24H1506.82V1383.54H1507.37C1508.54 1379.07 1510.74 1375.58 1513.97 1373.09C1517.27 1370.52 1521.45 1369.24 1526.51 1369.24H1534.43V1378.04H1523.76C1518.7 1378.04 1514.59 1379.51 1511.44 1382.44C1508.36 1385.37 1506.82 1389.22 1506.82 1393.99V1418.52H1528.82V1426H1481.41V1418.52ZM1571.67 1426V1369.24H1580.47V1378.48H1580.91C1581.5 1377.09 1582.23 1375.77 1583.11 1374.52C1583.99 1373.2 1585.06 1372.06 1586.3 1371.11C1587.62 1370.16 1589.16 1369.39 1590.92 1368.8C1592.68 1368.21 1594.74 1367.92 1597.08 1367.92C1603.02 1367.92 1607.79 1369.83 1611.38 1373.64C1614.98 1377.38 1616.77 1382.7 1616.77 1389.59V1426H1607.97V1391.13C1607.97 1385.92 1606.84 1382.07 1604.56 1379.58C1602.29 1377.01 1598.95 1375.73 1594.55 1375.73C1592.79 1375.73 1591.07 1375.95 1589.38 1376.39C1587.7 1376.83 1586.19 1377.49 1584.87 1378.37C1583.55 1379.25 1582.49 1380.39 1581.68 1381.78C1580.88 1383.17 1580.47 1384.79 1580.47 1386.62V1426H1571.67ZM1703.3 1426C1699.85 1426 1697.4 1425.12 1695.93 1423.36C1694.46 1421.6 1693.55 1419.4 1693.18 1416.76H1692.63C1691.38 1420.06 1689.37 1422.66 1686.58 1424.57C1683.87 1426.4 1680.2 1427.32 1675.58 1427.32C1669.64 1427.32 1664.91 1425.78 1661.39 1422.7C1657.87 1419.62 1656.11 1415.4 1656.11 1410.05C1656.11 1404.77 1658.02 1400.7 1661.83 1397.84C1665.72 1394.98 1671.95 1393.55 1680.53 1393.55H1692.63V1387.94C1692.63 1383.76 1691.46 1380.64 1689.11 1378.59C1686.76 1376.46 1683.43 1375.4 1679.1 1375.4C1675.29 1375.4 1672.17 1376.17 1669.75 1377.71C1667.33 1379.18 1665.39 1381.19 1663.92 1383.76L1657.98 1379.36C1658.71 1377.89 1659.7 1376.46 1660.95 1375.07C1662.2 1373.68 1663.74 1372.47 1665.57 1371.44C1667.4 1370.34 1669.49 1369.5 1671.84 1368.91C1674.19 1368.25 1676.79 1367.92 1679.65 1367.92C1686.32 1367.92 1691.6 1369.61 1695.49 1372.98C1699.45 1376.35 1701.43 1381.05 1701.43 1387.06V1418.3H1709.35V1426H1703.3ZM1677.12 1419.95C1679.39 1419.95 1681.45 1419.69 1683.28 1419.18C1685.19 1418.59 1686.84 1417.86 1688.23 1416.98C1689.62 1416.03 1690.69 1414.93 1691.42 1413.68C1692.23 1412.36 1692.63 1410.97 1692.63 1409.5V1400.15H1680.53C1675.25 1400.15 1671.4 1400.88 1668.98 1402.35C1666.56 1403.82 1665.35 1405.94 1665.35 1408.73V1411.04C1665.35 1413.97 1666.38 1416.21 1668.43 1417.75C1670.56 1419.22 1673.45 1419.95 1677.12 1419.95ZM1742.75 1426V1369.24H1750.89V1375.84H1751.33C1752.21 1373.64 1753.45 1371.77 1755.07 1370.23C1756.68 1368.69 1759.06 1367.92 1762.22 1367.92C1765.52 1367.92 1767.97 1368.76 1769.59 1370.45C1771.2 1372.06 1772.19 1374.19 1772.56 1376.83H1772.89C1773.91 1374.26 1775.38 1372.14 1777.29 1370.45C1779.19 1368.76 1781.83 1367.92 1785.21 1367.92C1789.83 1367.92 1792.91 1369.53 1794.45 1372.76C1796.06 1375.99 1796.87 1380.61 1796.87 1386.62V1426H1788.73V1388.05C1788.73 1383.21 1788.21 1379.87 1787.19 1378.04C1786.23 1376.13 1784.44 1375.18 1781.8 1375.18C1779.45 1375.18 1777.54 1375.95 1776.08 1377.49C1774.61 1378.96 1773.88 1381.23 1773.88 1384.31V1426H1765.74V1388.05C1765.74 1383.21 1765.22 1379.87 1764.2 1378.04C1763.24 1376.13 1761.48 1375.18 1758.92 1375.18C1756.57 1375.18 1754.63 1375.95 1753.09 1377.49C1751.62 1378.96 1750.89 1381.23 1750.89 1384.31V1426H1742.75ZM1946.38 1427.32C1940.44 1427.32 1935.31 1426.33 1930.98 1424.35C1926.73 1422.3 1923.1 1419.58 1920.09 1416.21L1926.03 1411.04C1928.74 1413.9 1931.71 1416.1 1934.94 1417.64C1938.17 1419.18 1942.05 1419.95 1946.6 1419.95C1951 1419.95 1954.59 1419.18 1957.38 1417.64C1960.24 1416.03 1961.67 1413.53 1961.67 1410.16C1961.67 1408.69 1961.38 1407.48 1960.79 1406.53C1960.28 1405.5 1959.54 1404.7 1958.59 1404.11C1957.64 1403.52 1956.57 1403.08 1955.4 1402.79C1954.23 1402.42 1952.98 1402.13 1951.66 1401.91L1942.75 1400.59C1940.77 1400.3 1938.61 1399.89 1936.26 1399.38C1933.99 1398.87 1931.9 1398.06 1929.99 1396.96C1928.08 1395.79 1926.47 1394.25 1925.15 1392.34C1923.9 1390.43 1923.28 1387.94 1923.28 1384.86C1923.28 1382 1923.83 1379.54 1924.93 1377.49C1926.1 1375.36 1927.72 1373.6 1929.77 1372.21C1931.82 1370.74 1934.24 1369.68 1937.03 1369.02C1939.82 1368.29 1942.86 1367.92 1946.16 1367.92C1951.29 1367.92 1955.73 1368.73 1959.47 1370.34C1963.28 1371.95 1966.55 1374.19 1969.26 1377.05L1963.54 1382.44C1962.88 1381.63 1962.04 1380.83 1961.01 1380.02C1960.06 1379.14 1958.85 1378.37 1957.38 1377.71C1955.99 1376.98 1954.34 1376.39 1952.43 1375.95C1950.52 1375.51 1948.32 1375.29 1945.83 1375.29C1941.36 1375.29 1937.91 1376.06 1935.49 1377.6C1933.14 1379.14 1931.97 1381.38 1931.97 1384.31C1931.97 1385.78 1932.23 1387.02 1932.74 1388.05C1933.33 1389 1934.1 1389.77 1935.05 1390.36C1936 1390.95 1937.07 1391.42 1938.24 1391.79C1939.49 1392.08 1940.73 1392.34 1941.98 1392.56L1950.89 1393.88C1952.94 1394.17 1955.11 1394.58 1957.38 1395.09C1959.65 1395.6 1961.74 1396.45 1963.65 1397.62C1965.56 1398.72 1967.13 1400.22 1968.38 1402.13C1969.7 1404.04 1970.36 1406.53 1970.36 1409.61C1970.36 1415.26 1968.16 1419.62 1963.76 1422.7C1959.43 1425.78 1953.64 1427.32 1946.38 1427.32ZM2033.68 1427.32C2029.72 1427.32 2026.12 1426.62 2022.9 1425.23C2019.74 1423.84 2017.03 1421.86 2014.76 1419.29C2012.56 1416.65 2010.87 1413.53 2009.7 1409.94C2008.52 1406.27 2007.94 1402.17 2007.94 1397.62C2007.94 1393.15 2008.52 1389.08 2009.7 1385.41C2010.87 1381.74 2012.56 1378.63 2014.76 1376.06C2017.03 1373.42 2019.74 1371.4 2022.9 1370.01C2026.12 1368.62 2029.72 1367.92 2033.68 1367.92C2037.64 1367.92 2041.19 1368.62 2044.35 1370.01C2047.57 1371.4 2050.29 1373.42 2052.49 1376.06C2054.76 1378.63 2056.48 1381.74 2057.66 1385.41C2058.83 1389.08 2059.42 1393.15 2059.42 1397.62C2059.42 1402.17 2058.83 1406.27 2057.66 1409.94C2056.48 1413.53 2054.76 1416.65 2052.49 1419.29C2050.29 1421.86 2047.57 1423.84 2044.35 1425.23C2041.19 1426.62 2037.64 1427.32 2033.68 1427.32ZM2033.68 1419.73C2038.59 1419.73 2042.55 1418.26 2045.56 1415.33C2048.56 1412.4 2050.07 1407.85 2050.07 1401.69V1393.55C2050.07 1387.39 2048.56 1382.84 2045.56 1379.91C2042.55 1376.98 2038.59 1375.51 2033.68 1375.51C2028.76 1375.51 2024.8 1376.98 2021.8 1379.91C2018.79 1382.84 2017.29 1387.39 2017.29 1393.55V1401.69C2017.29 1407.85 2018.79 1412.4 2021.8 1415.33C2024.8 1418.26 2028.76 1419.73 2033.68 1419.73ZM2097.76 1418.52H2116.9V1376.72H2096.66V1369.24H2116.9V1357.58C2116.9 1353.77 2117.89 1350.65 2119.87 1348.23C2121.93 1345.81 2125.12 1344.6 2129.44 1344.6H2148.47V1352.08H2125.7V1369.24H2148.47V1376.72H2125.7V1418.52H2145.94V1426H2097.76V1418.52ZM2212.34 1426C2208.02 1426 2204.83 1424.79 2202.77 1422.37C2200.79 1419.95 2199.8 1416.83 2199.8 1413.02V1376.72H2180.88V1369.24H2194.96C2196.87 1369.24 2198.19 1368.87 2198.92 1368.14C2199.73 1367.33 2200.13 1365.98 2200.13 1364.07V1349.22H2208.6V1369.24H2234.45V1376.72H2208.6V1418.52H2234.45V1426H2212.34ZM2267.85 1369.24H2275.66L2282.15 1418.3H2283.14L2292.82 1369.24H2302.5L2312.18 1418.3H2313.17L2319.66 1369.24H2327.25L2318.56 1426H2307.12L2298.1 1378.48H2297.22L2287.98 1426H2276.54L2267.85 1369.24ZM2406.96 1426C2403.51 1426 2401.05 1425.12 2399.59 1423.36C2398.12 1421.6 2397.2 1419.4 2396.84 1416.76H2396.29C2395.04 1420.06 2393.02 1422.66 2390.24 1424.57C2387.52 1426.4 2383.86 1427.32 2379.24 1427.32C2373.3 1427.32 2368.57 1425.78 2365.05 1422.7C2361.53 1419.62 2359.77 1415.4 2359.77 1410.05C2359.77 1404.77 2361.67 1400.7 2365.49 1397.84C2369.37 1394.98 2375.61 1393.55 2384.19 1393.55H2396.29V1387.94C2396.29 1383.76 2395.11 1380.64 2392.77 1378.59C2390.42 1376.46 2387.08 1375.4 2382.76 1375.4C2378.94 1375.4 2375.83 1376.17 2373.41 1377.71C2370.99 1379.18 2369.04 1381.19 2367.58 1383.76L2361.64 1379.36C2362.37 1377.89 2363.36 1376.46 2364.61 1375.07C2365.85 1373.68 2367.39 1372.47 2369.23 1371.44C2371.06 1370.34 2373.15 1369.5 2375.5 1368.91C2377.84 1368.25 2380.45 1367.92 2383.31 1367.92C2389.98 1367.92 2395.26 1369.61 2399.15 1372.98C2403.11 1376.35 2405.09 1381.05 2405.09 1387.06V1418.3H2413.01V1426H2406.96ZM2380.78 1419.95C2383.05 1419.95 2385.1 1419.69 2386.94 1419.18C2388.84 1418.59 2390.49 1417.86 2391.89 1416.98C2393.28 1416.03 2394.34 1414.93 2395.08 1413.68C2395.88 1412.36 2396.29 1410.97 2396.29 1409.5V1400.15H2384.19C2378.91 1400.15 2375.06 1400.88 2372.64 1402.35C2370.22 1403.82 2369.01 1405.94 2369.01 1408.73V1411.04C2369.01 1413.97 2370.03 1416.21 2372.09 1417.75C2374.21 1419.22 2377.11 1419.95 2380.78 1419.95ZM2448.93 1418.52H2465.54V1376.72H2448.93V1369.24H2474.34V1383.54H2474.89C2476.07 1379.07 2478.27 1375.58 2481.49 1373.09C2484.79 1370.52 2488.97 1369.24 2494.03 1369.24H2501.95V1378.04H2491.28C2486.22 1378.04 2482.12 1379.51 2478.96 1382.44C2475.88 1385.37 2474.34 1389.22 2474.34 1393.99V1418.52H2496.34V1426H2448.93V1418.52ZM2562.41 1427.32C2558.3 1427.32 2554.6 1426.62 2551.3 1425.23C2548.07 1423.84 2545.29 1421.86 2542.94 1419.29C2540.67 1416.65 2538.91 1413.53 2537.66 1409.94C2536.41 1406.27 2535.79 1402.2 2535.79 1397.73C2535.79 1393.18 2536.41 1389.08 2537.66 1385.41C2538.98 1381.74 2540.78 1378.63 2543.05 1376.06C2545.32 1373.42 2548.04 1371.4 2551.19 1370.01C2554.42 1368.62 2557.97 1367.92 2561.86 1367.92C2565.67 1367.92 2569.12 1368.62 2572.2 1370.01C2575.35 1371.4 2578.03 1373.35 2580.23 1375.84C2582.43 1378.26 2584.12 1381.16 2585.29 1384.53C2586.46 1387.9 2587.05 1391.61 2587.05 1395.64V1399.82H2545.03V1402.46C2545.03 1404.95 2545.43 1407.26 2546.24 1409.39C2547.05 1411.52 2548.18 1413.35 2549.65 1414.89C2551.19 1416.43 2553.02 1417.64 2555.15 1418.52C2557.35 1419.33 2559.77 1419.73 2562.41 1419.73C2566.22 1419.73 2569.52 1418.85 2572.31 1417.09C2575.1 1415.33 2577.22 1412.91 2578.69 1409.83L2585.18 1414.23C2583.49 1418.04 2580.67 1421.2 2576.71 1423.69C2572.82 1426.11 2568.06 1427.32 2562.41 1427.32ZM2561.86 1375.18C2559.44 1375.18 2557.2 1375.62 2555.15 1376.5C2553.1 1377.38 2551.3 1378.59 2549.76 1380.13C2548.29 1381.67 2547.12 1383.5 2546.24 1385.63C2545.43 1387.68 2545.03 1389.96 2545.03 1392.45V1393.22H2577.59V1392.01C2577.59 1389.52 2577.19 1387.24 2576.38 1385.19C2575.65 1383.14 2574.58 1381.38 2573.19 1379.91C2571.87 1378.37 2570.22 1377.2 2568.24 1376.39C2566.33 1375.58 2564.21 1375.18 2561.86 1375.18Z" fill="black"/>
<defs>
<clipPath id="clip0_0_1">
<rect width="1342" height="1153" fill="white" transform="translate(587)"/>
</clipPath>
</defs>
</svg>
